<svg width="39" height="28" viewBox="0 0 39 28" fill="none" xmlns="http://www.w3.org/2000/svg">
<path d="M25.9998 14C24.3293 14 22.714 13.2698 21.4498 11.9445C20.2205 10.6519 19.4697 8.92817 19.3373 7.09227C19.1959 5.13386 19.8061 3.33295 21.0549 2.02045C22.3037 0.707954 24.0498 0 25.9998 0C27.936 0 29.6869 0.720681 30.9316 2.03C32.1886 3.35204 32.8004 5.14977 32.659 7.09147C32.5233 8.92976 31.7734 10.6527 30.5465 11.9437C29.2855 13.2698 27.6711 14 25.9998 14ZM36.7109 28H15.2895C14.945 28.0018 14.6048 27.9262 14.2949 27.7791C13.985 27.6319 13.7137 27.4171 13.502 27.1512C13.2773 26.863 13.1222 26.5287 13.0482 26.1734C12.9741 25.8182 12.9832 25.4511 13.0746 25.0997C13.7587 22.4103 15.4536 20.1799 17.9756 18.6502C20.214 17.2932 23.0634 16.5454 25.9998 16.5454C28.9938 16.5454 31.7685 17.2613 34.0199 18.6176C36.5476 20.1393 38.2449 22.3825 38.9258 25.1045C39.0161 25.4561 39.0241 25.8232 38.9492 26.1783C38.8744 26.5333 38.7186 26.8673 38.4935 27.1552C38.2819 27.4199 38.0113 27.6336 37.7023 27.78C37.3933 27.9265 37.0542 28.0017 36.7109 28ZM10.6436 14.3182C7.78443 14.3182 5.27057 11.7154 5.03738 8.51692C4.92201 6.87829 5.44363 5.36295 6.49987 4.2517C7.54474 3.15159 9.01861 2.54545 10.6436 2.54545C12.2686 2.54545 13.7311 3.15477 14.7816 4.26125C15.846 5.38124 16.366 6.8934 16.2441 8.51851C16.0109 11.7162 13.4979 14.3182 10.6436 14.3182ZM15.9784 16.8199C14.5493 16.1358 12.6943 15.7937 10.6444 15.7937C8.2508 15.7937 5.92625 16.4046 4.09814 17.5135C2.02546 18.7727 0.631217 20.6062 0.0681572 22.82C-0.0142419 23.1384 -0.0220354 23.4709 0.0453597 23.7927C0.112755 24.1145 0.253594 24.4172 0.457343 24.6782C0.650674 24.9211 0.898353 25.1175 1.18133 25.2521C1.46431 25.3867 1.77505 25.4559 2.08965 25.4545H11.1083C11.2606 25.4545 11.408 25.4022 11.5248 25.3067C11.6417 25.2112 11.7206 25.0785 11.7478 24.9319C11.7567 24.8818 11.7681 24.8317 11.7811 24.7824C12.4701 22.073 14.0845 19.7837 16.47 18.1149C16.5577 18.0529 16.6283 17.9706 16.6753 17.8752C16.7223 17.7798 16.7443 17.6745 16.7392 17.5687C16.7341 17.463 16.7022 17.3601 16.6462 17.2695C16.5903 17.1789 16.5121 17.1033 16.4188 17.0498C16.2913 16.9766 16.145 16.8994 15.9784 16.8199Z" fill="#FFB706"/>
</svg>
