<svg width="33" height="29" viewBox="0 0 33 29" fill="none" xmlns="http://www.w3.org/2000/svg">
<path d="M11.1956 28.634C12.5135 28.634 13.5818 27.5657 13.5818 26.2478C13.5818 24.93 12.5135 23.8617 11.1956 23.8617C9.87777 23.8617 8.80945 24.93 8.80945 26.2478C8.80945 27.5657 9.87777 28.634 11.1956 28.634Z" fill="#D7473F"/>
<path d="M27.8989 28.634C29.2168 28.634 30.2851 27.5657 30.2851 26.2478C30.2851 24.93 29.2168 23.8617 27.8989 23.8617C26.5811 23.8617 25.5128 24.93 25.5128 26.2478C25.5128 27.5657 26.5811 28.634 27.8989 28.634Z" fill="#D7473F"/>
<path d="M32.1343 4.23395C31.9667 4.02893 31.7556 3.8638 31.5162 3.75055C31.2768 3.63731 31.0152 3.57879 30.7504 3.57925H8.05571L7.59861 0.985784C7.54987 0.709532 7.40534 0.459288 7.19043 0.279008C6.97551 0.0987277 6.70394 -5.89394e-05 6.42342 2.63822e-08H1.65109C1.33467 2.63822e-08 1.0312 0.1257 0.807453 0.349446C0.583707 0.573192 0.458008 0.876657 0.458008 1.19308C0.458008 1.50951 0.583707 1.81297 0.807453 2.03672C1.0312 2.26047 1.33467 2.38616 1.65109 2.38616H5.42272L8.82748 21.6828C8.87622 21.959 9.02074 22.2093 9.23566 22.3896C9.45058 22.5698 9.72215 22.6686 10.0027 22.6686H29.092C29.4084 22.6686 29.7119 22.5429 29.9356 22.3191C30.1594 22.0954 30.2851 21.7919 30.2851 21.4755C30.2851 21.1591 30.1594 20.8556 29.9356 20.6318C29.7119 20.4081 29.4084 20.2824 29.092 20.2824H11.0034L10.5828 17.8962H28.6028C29.0166 17.8957 29.4174 17.7522 29.7376 17.4901C30.0577 17.228 30.2775 16.8633 30.3596 16.4578L32.5072 5.72008C32.5589 5.46022 32.5523 5.1921 32.4879 4.9351C32.4234 4.6781 32.3026 4.43862 32.1343 4.23395Z" fill="#D7473F"/>
</svg>
