<svg width="36" height="32" viewBox="0 0 36 32" fill="none" xmlns="http://www.w3.org/2000/svg">
<path d="M9.60528 3.80821C9.7776 3.63769 9.91272 3.43331 10.0021 3.20797C10.0915 2.98263 10.1333 2.74121 10.1247 2.49893C10.1162 2.25665 10.0575 2.01877 9.95245 1.80029C9.84739 1.58181 9.69821 1.38747 9.5143 1.22951C8.5888 0.439652 7.41298 0.00394717 6.19625 0L5.92822 0.00737678H5.88887C3.11427 0.17623 0.950328 2.58608 0.956066 5.49183C0.956066 7.04921 1.61181 7.8738 2.12984 8.53364C2.27521 8.71811 2.45744 8.87025 2.66491 8.98033C2.87237 9.09042 3.10051 9.15603 3.33476 9.17299C3.35608 9.17299 3.39214 9.17709 3.4987 9.17709C3.70941 9.17678 3.91788 9.13385 4.11157 9.05088C4.30526 8.96791 4.48016 8.84662 4.62575 8.6943L9.60528 3.80821ZM30.1136 0.00901648L29.8455 0.000819851H29.8029C28.5851 0.00399069 27.4079 0.439744 26.4816 1.23033C26.2979 1.38828 26.149 1.58253 26.0441 1.80086C25.9392 2.01919 25.8806 2.25688 25.8721 2.49895C25.8635 2.74102 25.9052 2.98225 25.9944 3.20743C26.0837 3.43262 26.2186 3.63689 26.3906 3.80739L31.3718 8.69676C31.5177 8.84962 31.6931 8.9713 31.8874 9.05442C32.0817 9.13755 32.2908 9.18039 32.5021 9.18037C32.607 9.18037 32.6431 9.18037 32.666 9.17627C32.9001 9.1592 33.1281 9.09353 33.3354 8.98345C33.5428 8.87337 33.7249 8.72129 33.8701 8.53692C34.3915 7.87708 35.0406 7.05495 35.0439 5.4951C35.0488 2.58608 32.8849 0.17623 30.1136 0.00901648Z" fill="#329D7E"/>
<path d="M18.0054 2.62296C10.0546 2.62296 3.57915 9.09429 3.57915 17.0492C3.57633 20.422 4.76053 23.6882 6.92425 26.2755L3.96358 29.237C3.8389 29.3581 3.73955 29.5029 3.6713 29.6627C3.60305 29.8226 3.56727 29.9945 3.56604 30.1683C3.56481 30.3422 3.59815 30.5145 3.66412 30.6753C3.7301 30.8362 3.82739 30.9823 3.95034 31.1052C4.07329 31.2281 4.21944 31.3253 4.38031 31.3912C4.54117 31.4571 4.71353 31.4904 4.88736 31.4891C5.0612 31.4877 5.23304 31.4519 5.39289 31.3836C5.55274 31.3153 5.69742 31.2158 5.8185 31.0911L8.77917 28.1304C11.3679 30.2917 14.6331 31.4756 18.0054 31.4756C21.3777 31.4756 24.643 30.2917 27.2317 28.1304L30.1932 31.0911C30.3143 31.2158 30.459 31.3153 30.6188 31.3836C30.7787 31.4519 30.9505 31.4877 31.1243 31.4891C31.2982 31.4904 31.4705 31.4571 31.6314 31.3912C31.7923 31.3253 31.9384 31.2281 32.0614 31.1052C32.1843 30.9823 32.2816 30.8362 32.3476 30.6753C32.4136 30.5145 32.4469 30.3422 32.4457 30.1683C32.4444 29.9945 32.4086 29.8226 32.3404 29.6627C32.2722 29.5029 32.1728 29.3581 32.0481 29.237L29.0866 26.2755C31.2507 23.6884 32.435 20.4221 32.4317 17.0492C32.4317 9.09839 25.9604 2.62296 18.0054 2.62296ZM19.3169 17.0492C19.3169 17.3971 19.1787 17.7307 18.9328 17.9766C18.6868 18.2226 18.3533 18.3607 18.0054 18.3607H11.448C11.1002 18.3607 10.7666 18.2226 10.5207 17.9766C10.2747 17.7307 10.1366 17.3971 10.1366 17.0492C10.1366 16.7014 10.2747 16.3678 10.5207 16.1219C10.7666 15.8759 11.1002 15.7378 11.448 15.7378H16.694V7.86888C16.694 7.52105 16.8321 7.18747 17.0781 6.94152C17.324 6.69557 17.6576 6.5574 18.0054 6.5574C18.3533 6.5574 18.6868 6.69557 18.9328 6.94152C19.1787 7.18747 19.3169 7.52105 19.3169 7.86888V17.0492Z" fill="#329D7E"/>
</svg>
