<svg width="31" height="30" viewBox="0 0 31 30" fill="none" xmlns="http://www.w3.org/2000/svg">
<path fill-rule="evenodd" clip-rule="evenodd" d="M19.0229 10.0945C18.4515 9.77039 17.8802 9.44085 17.3142 9.11131C17.3142 8.45762 17.3142 7.80394 17.3142 7.15025C17.3142 6.49657 17.3142 5.84288 17.3142 5.1892C17.8856 5.51874 18.457 5.84288 19.0229 6.17242C19.5943 6.50197 20.1657 6.82611 20.7316 7.15565C21.303 7.4852 21.8744 7.80934 22.4403 8.13888C23.0117 8.46843 23.583 8.79257 24.149 9.12211C24.7203 9.45166 25.2917 9.7758 25.8577 10.1053C26.429 10.4349 27.0004 10.759 27.5663 11.0886C27.5663 11.7423 27.5663 12.3959 27.5663 13.0496C27.5663 13.7033 27.5663 14.357 27.5663 15.0107C26.995 14.6811 26.4236 14.357 25.8577 14.0275C25.2863 13.7033 24.7149 13.3738 24.149 13.0442C23.5776 12.7201 23.0062 12.3905 22.4403 12.061C21.8689 11.7315 21.2975 11.4073 20.7316 11.0778C20.1602 10.7482 19.5943 10.4241 19.0229 10.0945ZM10.4686 11.0778C9.89725 11.4073 9.32587 11.7315 8.75994 12.061C8.18856 12.3905 7.61719 12.7147 7.05125 13.0442C6.47988 13.3738 5.9085 13.6979 5.34257 14.0275C4.7712 14.357 4.19982 14.6811 3.63389 15.0107C3.63389 14.357 3.63389 13.7033 3.63389 13.0496C3.63389 12.3959 3.63389 11.7423 3.63389 11.0886C4.20526 10.759 4.77664 10.4349 5.34257 10.1053C5.91395 9.7812 6.48532 9.45166 7.05125 9.12211C7.62263 8.79257 8.194 8.46843 8.75994 8.13888C9.33131 7.80934 9.90269 7.4852 10.4686 7.15565C11.04 6.82611 11.6114 6.50197 12.1773 6.17242C12.7487 5.84288 13.3201 5.51874 13.886 5.1892C13.886 5.84288 13.886 6.49657 13.886 7.15025C13.886 7.80394 13.886 8.45762 13.886 9.11131C13.3146 9.44085 12.7432 9.76499 12.1773 10.0945C11.6059 10.4241 11.0346 10.7482 10.4686 11.0778ZM31 13.0388V11.0778V9.11671C29.2913 8.13348 27.5772 7.15565 25.8685 6.17242L24.1599 5.1892L22.4512 4.20597L20.7425 3.22274L19.0338 2.23951L17.3251 1.25628L17.0204 1.0834C16.1225 0.57018 15.0995 0.57018 14.207 1.0834L13.9023 1.25628L12.1936 2.23951L10.4849 3.22274L8.77626 4.20597L7.06758 5.1892L5.3589 6.17242L3.65021 7.15565L1.94153 8.13888L0.200195 9.11671V11.0778V13.0388V14.9999V16.9609V18.922V19.4298C0.200195 19.7377 0.352562 20.0025 0.624645 20.1537C0.891287 20.305 1.20146 20.305 1.4681 20.1537C1.61503 20.0673 1.76195 19.9863 1.91432 19.8998C2.4857 19.5757 3.05707 19.2461 3.623 18.9166C4.19438 18.587 4.76575 18.2629 5.33169 17.9334C5.90306 17.6038 6.47444 17.2797 7.04037 16.9501C7.61175 16.626 8.18312 16.2964 8.74905 15.9723C9.32043 15.6428 9.89181 15.3186 10.4577 14.9891C11.0291 14.6595 11.6005 14.3354 12.1664 14.0058C12.7378 13.6763 13.3092 13.3522 13.8751 13.0226C14.4465 12.6985 15.0179 12.3689 15.5838 12.0394C16.1552 12.3689 16.7265 12.6931 17.2925 13.0226C17.8638 13.3522 18.4352 13.6763 19.0012 14.0058C19.5725 14.3354 20.1439 14.6595 20.7098 14.9891C21.2812 15.3132 21.8526 15.6428 22.4185 15.9723C22.9899 16.3018 23.5613 16.626 24.1272 16.9555C24.6986 17.2851 25.27 17.6092 25.8359 17.9388C26.4073 18.2629 26.9786 18.5924 27.5446 18.922C28.1159 19.2515 28.6873 19.5757 29.2533 19.9052C29.4002 19.9917 29.5471 20.0727 29.6995 20.1591C29.9661 20.3104 30.2763 20.3104 30.5429 20.1591C30.8096 20.0025 30.9674 19.7431 30.9674 19.4352V18.9274V16.9663V15.0053V13.0388H31Z" fill="#262626"/>
<path fill-rule="evenodd" clip-rule="evenodd" d="M13.886 22.8442C13.3146 22.52 12.7432 22.1905 12.1773 21.8609C12.7487 21.5314 13.3201 21.2073 13.886 20.8777C14.4574 20.5482 15.0287 20.224 15.5947 19.8945C16.166 20.224 16.7374 20.5482 17.3034 20.8777C17.8747 21.2073 18.4461 21.5314 19.012 21.8609C19.5834 22.1851 20.1548 22.5146 20.7207 22.8442C21.2921 23.1737 21.8635 23.4979 22.4294 23.8274C21.858 24.157 21.2866 24.4811 20.7207 24.8106C20.1493 25.1348 19.578 25.4643 19.012 25.7939C18.4407 25.4643 17.8693 25.1402 17.3034 24.8106C16.732 24.4865 16.1606 24.157 15.5947 23.8274C15.0287 23.4979 14.4574 23.1737 13.886 22.8442ZM3.59579 26.7825L3.623 26.7663C4.19438 26.4367 4.76575 26.1126 5.33169 25.7831C5.90306 25.4535 6.47444 25.1294 7.04037 24.7998L8.55859 23.9301L3.59579 26.7825ZM0.200195 27.7495V28.7327L8.56404 23.9409L8.60213 23.9192L8.69464 23.8652L8.75994 23.8274C9.33131 24.157 9.90269 24.4811 10.4686 24.8106C11.04 25.1402 11.6114 25.4643 12.1773 25.7939C12.7487 26.1234 13.3201 26.4475 13.886 26.7771C14.4574 27.1066 15.0287 27.4308 15.5947 27.7603C16.166 28.0845 16.7374 28.414 17.3034 28.7436C17.4067 28.803 17.5047 28.857 17.6081 28.9164C18.506 29.4297 19.529 29.4297 20.4214 28.9164C20.5248 28.857 20.6228 28.803 20.7262 28.7436C21.2975 28.414 21.8689 28.0899 22.4348 27.7603C23.0062 27.4308 23.5776 27.1066 24.1435 26.7771C24.7149 26.4475 25.2863 26.1234 25.8522 25.7939C26.4236 25.4643 26.995 25.1402 27.5609 24.8106C27.7078 24.7242 27.8547 24.6432 28.0071 24.5567C28.2737 24.4055 28.4316 24.1407 28.4316 23.8328C28.4316 23.5249 28.2792 23.2602 28.0071 23.1089C27.8602 23.0225 27.7133 22.9414 27.5609 22.855C26.9895 22.5308 26.4181 22.2013 25.8522 21.8718C25.2808 21.5422 24.7095 21.2181 24.1435 20.8885C23.5721 20.559 23.0008 20.2348 22.4348 19.9053C21.8635 19.5812 21.2921 19.2516 20.7262 18.9221C20.1548 18.5925 19.5834 18.2684 19.0175 17.9388C18.4461 17.6093 17.8747 17.2852 17.3088 16.9556C16.7374 16.6315 16.166 16.3019 15.6001 15.9778C15.0287 16.3019 14.4574 16.6315 13.8914 16.9556C13.3201 17.2852 12.7487 17.6093 12.1827 17.9388C11.6114 18.263 11.04 18.5925 10.4741 18.9221C9.90268 19.2516 9.33131 19.5758 8.76538 19.9053C8.194 20.2348 7.62263 20.559 7.05669 20.8885C6.48532 21.2181 5.91394 21.5422 5.34801 21.8718C4.77664 22.1959 4.20526 22.5254 3.63933 22.855C3.06795 23.1845 2.49658 23.5087 1.93065 23.8382C1.34295 24.1515 0.77157 24.4811 0.200195 24.8052V26.7663V27.7495Z" fill="#262626"/>
</svg>
