<svg width="283" height="57" viewBox="0 0 283 57" fill="none" xmlns="http://www.w3.org/2000/svg">
<path fill-rule="evenodd" clip-rule="evenodd" d="M36.407 18.3243C35.2996 17.6894 34.2058 17.0545 33.0985 16.406C33.0985 15.1363 33.0985 13.8529 33.0985 12.5831C33.0985 11.3134 33.0985 10.03 33.0985 8.76025C34.2058 9.39515 35.2996 10.03 36.407 10.6785C37.5143 11.3134 38.6081 11.9482 39.7155 12.5967C40.8228 13.2316 41.9166 13.8665 43.024 14.5149C44.1313 15.1498 45.2251 15.7847 46.3325 16.4331C47.4398 17.068 48.5336 17.7029 49.641 18.3513C50.7483 18.9862 51.8421 19.6211 52.9495 20.2695C52.9495 21.5393 52.9495 22.8226 52.9495 24.0924C52.9495 25.3622 52.9495 26.6455 52.9495 27.9153C51.8421 27.2804 50.7483 26.6455 49.641 25.9971C48.5336 25.3622 47.4398 24.7273 46.3325 24.0789C45.2251 23.444 44.1313 22.8091 43.024 22.1607C41.9166 21.5258 40.8228 20.8909 39.7155 20.2425C38.6216 19.6076 37.5143 18.9592 36.407 18.3243ZM19.8645 20.2425C18.7572 20.8774 17.6633 21.5123 16.556 22.1607C15.4487 22.7956 14.3548 23.4305 13.2475 24.0789C12.1402 24.7138 11.0463 25.3487 9.939 25.9971C8.83166 26.632 7.73783 27.2669 6.6305 27.9153C6.6305 26.6455 6.6305 25.3622 6.6305 24.0924C6.6305 22.8226 6.6305 21.5393 6.6305 20.2695C7.73783 19.6346 8.83166 18.9997 9.939 18.3513C11.0463 17.7164 12.1402 17.0815 13.2475 16.4331C14.3548 15.7982 15.4487 15.1633 16.556 14.5149C17.6633 13.88 18.7572 13.2451 19.8645 12.5967C20.9718 11.9618 22.0657 11.3269 23.173 10.6785C24.2803 10.0436 25.3742 9.40866 26.4815 8.76025C26.4815 10.03 26.4815 11.3134 26.4815 12.5831C26.4815 13.8529 26.4815 15.1363 26.4815 16.406C25.3742 17.0409 24.2803 17.6758 23.173 18.3243C22.0657 18.9592 20.9583 19.6076 19.8645 20.2425ZM59.58 24.0654V20.2425V16.4196C56.2715 14.5014 52.963 12.5967 49.6545 10.6785L46.346 8.76025L43.0375 6.84204L39.729 4.92384L36.4205 3.00564L33.112 1.08743L32.5313 0.749721C30.8028 -0.249907 28.8177 -0.249907 27.0892 0.749721L26.5085 1.08743L23.2 3.00564L19.8915 4.92384L16.583 6.84204L13.234 8.77376L9.92549 10.6785L6.61699 12.5967L3.3085 14.5149L0 16.4196V20.2425V24.0654V27.8883V31.7112V35.5341V36.5202C0 37.1145 0.29709 37.6414 0.810244 37.9386C1.3234 38.2358 1.93108 38.2358 2.44424 37.9386C2.72782 37.7765 3.01141 37.6009 3.3085 37.4388C4.41583 36.8039 5.50966 36.169 6.61699 35.5205C7.72433 34.8856 8.81816 34.2508 9.92549 33.6023C11.0328 32.9674 12.1267 32.3325 13.234 31.6841C14.3413 31.0492 15.4352 30.4143 16.5425 29.7794C17.6498 29.1445 18.7437 28.5096 19.851 27.8612C20.9583 27.2263 22.0521 26.5914 23.1595 25.943C24.2668 25.3081 25.3606 24.6732 26.468 24.0248C27.5753 23.3899 28.6691 22.755 29.7765 22.1066C30.8838 22.7415 31.9776 23.3764 33.085 24.0248C34.1923 24.6597 35.2861 25.2946 36.3935 25.943C37.5008 26.5779 38.5946 27.2128 39.702 27.8612C40.8093 28.4961 41.9031 29.131 43.0105 29.7794C44.1178 30.4143 45.2116 31.0492 46.319 31.6976C47.4263 32.3325 48.5201 32.9674 49.6275 33.6159C50.7348 34.2508 51.8286 34.8857 52.936 35.5341C54.0433 36.169 55.1371 36.8039 56.2445 37.4523C56.528 37.6144 56.8116 37.79 57.1087 37.9521C57.6219 38.2493 58.2296 38.2493 58.7427 37.9521C59.2559 37.6549 59.553 37.1416 59.553 36.5337V35.5476V31.7247V27.9018V24.0654H59.58Z" fill="#262626"/>
<path fill-rule="evenodd" clip-rule="evenodd" d="M26.4815 43.1799C25.3742 42.545 24.2803 41.9101 23.173 41.2617C24.2803 40.6268 25.3742 39.9919 26.4815 39.3435C27.5888 38.7086 28.6826 38.0737 29.79 37.4253C30.8973 38.0602 31.9911 38.6951 33.0985 39.3435C34.2058 39.9784 35.2996 40.6133 36.407 41.2617C37.5143 41.8966 38.6081 42.5315 39.7155 43.1799C40.8228 43.8148 41.9166 44.4497 43.024 45.0981C41.9166 45.733 40.8228 46.3679 39.7155 47.0163C38.6081 47.6512 37.5143 48.2861 36.407 48.9345C35.2996 48.2996 34.2058 47.6647 33.0985 47.0163C31.9911 46.3814 30.8973 45.7465 29.79 45.0981C28.6826 44.4497 27.5888 43.8148 26.4815 43.1799ZM6.56298 50.8527L6.61699 50.8257C7.72433 50.1908 8.81816 49.5559 9.92549 48.9075C11.0328 48.2726 12.1267 47.6377 13.234 46.9893L16.1644 45.2872L6.56298 50.8527ZM0 52.7304V54.6486L16.1779 45.3007L16.2454 45.2602L16.4209 45.1521L16.5425 45.0846C17.6498 45.7195 18.7437 46.3544 19.851 47.0028C20.9583 47.6377 22.0521 48.2726 23.1595 48.921C24.2668 49.5559 25.3606 50.1908 26.468 50.8392C27.5753 51.4741 28.6691 52.109 29.7765 52.7574C30.8838 53.3923 31.9776 54.0272 33.085 54.6756C33.274 54.7837 33.4766 54.9052 33.6656 55.0133C35.3942 56.0129 37.3793 56.0129 39.1078 55.0133C39.2968 54.9052 39.4994 54.7837 39.6885 54.6756C40.7958 54.0407 41.8896 53.4058 42.997 52.7574C44.1043 52.1225 45.1981 51.4876 46.3055 50.8392C47.4128 50.2043 48.5066 49.5694 49.614 48.921C50.7213 48.2861 51.8151 47.6512 52.9225 47.0028C53.206 46.8407 53.4896 46.6786 53.7867 46.503C54.2999 46.2058 54.597 45.6924 54.597 45.0846C54.597 44.4902 54.2999 43.9634 53.7867 43.6662C53.5031 43.5041 53.2195 43.342 52.9225 43.1664C51.8151 42.5315 50.7213 41.8966 49.614 41.2482C48.5066 40.6133 47.4128 39.9784 46.3055 39.33C45.1981 38.6951 44.1043 38.0602 42.997 37.4118C41.8896 36.7769 40.7958 36.142 39.6885 35.4935C38.5811 34.8586 37.4873 34.2237 36.38 33.5753C35.2726 32.9404 34.1788 32.3055 33.0715 31.6571C31.9641 31.0222 30.8703 30.3873 29.763 29.7524C28.6556 30.3873 27.5618 31.0222 26.4545 31.6571C25.3471 32.292 24.2533 32.9269 23.146 33.5753C22.0386 34.2102 20.9448 34.8451 19.8375 35.4935C18.7301 36.1284 17.6363 36.7633 16.529 37.4118C15.4216 38.0466 14.3278 38.6815 13.2205 39.33C12.1132 39.9649 11.0193 40.5998 9.91199 41.2482C8.83166 41.9101 7.72433 42.545 6.61699 43.1799C5.50966 43.8148 4.41583 44.4497 3.3085 45.0981C2.20116 45.733 1.10733 46.3679 0 47.0028V50.8257V52.7304Z" fill="#262626"/>
<path d="M92.9242 17.5003C94.5114 17.9413 95.8164 18.8057 96.8216 20.0935C97.8445 21.3813 98.3559 23.022 98.3559 25.0507V25.3506C98.3559 28.1026 97.4565 30.3254 95.6577 32.0013C93.8589 33.6772 91.3194 34.524 88.0216 34.524H74.7598V1.48218H88.3214C91.196 1.48218 93.4533 2.20546 95.1287 3.65203C96.804 5.0986 97.6329 7.03912 97.6329 9.49124V9.70293C97.6329 13.6898 96.0457 16.1772 92.9066 17.1475V17.5003H92.9242ZM86.3815 8.5739H83.5951V14.1132H86.4697C87.2633 14.1132 87.8982 13.8839 88.3567 13.4428C88.8152 13.0018 89.0445 12.3491 89.0445 11.4847V11.273C89.0445 10.3557 88.7976 9.68529 88.3214 9.24426C87.8453 8.78559 87.1927 8.5739 86.3815 8.5739ZM86.1346 20.6933H83.5951V27.4499H86.0817C88.392 27.4499 89.5559 26.3385 89.5559 24.1334V23.8335C89.5559 22.8103 89.2561 22.0341 88.6565 21.4872C88.0569 20.9403 87.2104 20.6933 86.1346 20.6933Z" fill="black"/>
<path d="M115.497 34.5416L114.863 30.3077C113.505 33.4831 111.141 35.0708 107.755 35.0708C105.727 35.0708 104.052 34.3651 102.712 32.9362C101.371 31.5073 100.701 29.5315 100.701 26.9912V26.7618C100.701 22.0164 103.206 18.9468 108.214 17.5355L114.651 15.6656V14.2014C114.651 13.531 114.457 12.9841 114.051 12.5607C113.663 12.155 113.081 11.9433 112.341 11.9433C111.529 11.9433 110.912 12.1726 110.507 12.6137C110.101 13.0547 109.907 13.6192 109.907 14.2896V15.1011H101.759V13.7956C101.759 11.1847 102.641 9.10308 104.405 7.56831C106.168 6.01589 108.867 5.25732 112.517 5.25732C116.185 5.25732 118.901 6.06881 120.665 7.6918C122.428 9.31478 123.31 11.8375 123.31 15.2775V34.5592H115.497V34.5416ZM114.686 21.9458L111.618 22.9161C110.101 23.4277 109.343 24.4332 109.325 25.9327V26.0738C109.325 26.7442 109.501 27.2734 109.854 27.6615C110.207 28.0496 110.701 28.2437 111.353 28.2437C112.217 28.2437 112.993 27.9085 113.663 27.2381C114.333 26.5678 114.686 25.6152 114.686 24.3979V21.9458Z" fill="black"/>
<path d="M136.131 21.593V34.5416H127.49V1.28809H136.131V17.7825H136.589L142.074 5.73364H151.174L144.931 19.1762L151.65 34.5416H142.092L136.642 21.593H136.131Z" fill="black"/>
<path d="M167.134 5.73364H175.74V34.5416H167.963L167.363 30.5018C166.693 31.7013 165.688 32.7775 164.347 33.6948C163.007 34.6121 161.543 35.0532 159.939 35.0355C157.999 35.0179 156.482 34.3652 155.371 33.1303C154.26 31.8778 153.713 29.9372 153.713 27.3087V5.73364H162.302V25.6328C162.302 27.1852 163.007 27.9791 164.436 27.9791C165.194 27.9791 165.811 27.7145 166.34 27.1676C166.852 26.6207 167.116 25.8445 167.116 24.839V5.73364H167.134Z" fill="black"/>
<path d="M193.04 25.8622H189.407V34.5416H180.59V1.48218H192.934C196.426 1.48218 199.16 2.47008 201.099 4.46352C203.039 6.43933 204.009 9.22662 204.009 12.7901V14.0956C204.009 17.5885 202.986 20.4287 200.958 22.6162C198.895 24.7684 196.267 25.8622 193.04 25.8622ZM191.576 18.4529C192.617 18.4529 193.463 18.0825 194.081 17.3592C194.698 16.6359 194.998 15.6303 194.998 14.3425V12.8431C194.998 11.5729 194.698 10.6026 194.081 9.91463C193.463 9.22662 192.634 8.89144 191.576 8.89144H189.407V18.4529H191.576Z" fill="black"/>
<path d="M220.375 34.5416L219.74 30.3077C218.382 33.4831 216.019 35.0708 212.633 35.0708C210.605 35.0708 208.93 34.3651 207.589 32.9362C206.249 31.5073 205.579 29.5315 205.579 26.9912V26.7618C205.579 22.0164 208.083 18.9468 213.091 17.5355L219.528 15.6656V14.2014C219.528 13.531 219.334 12.9841 218.929 12.5607C218.523 12.1374 217.959 11.9257 217.218 11.9257C216.407 11.9257 215.79 12.155 215.384 12.596C214.978 13.037 214.784 13.6016 214.784 14.2719V15.0834H206.637V13.7956C206.637 11.1847 207.519 9.10308 209.282 7.56831C211.046 6.01589 213.744 5.25732 217.395 5.25732C221.063 5.25732 223.778 6.06881 225.542 7.6918C227.306 9.31478 228.187 11.8375 228.187 15.2775V34.5592H220.375V34.5416ZM219.564 21.9458L216.495 22.9161C214.978 23.4277 214.22 24.4332 214.202 25.9327V26.0738C214.202 26.7442 214.379 27.2734 214.732 27.6615C215.084 28.0496 215.578 28.2437 216.231 28.2437C217.095 28.2437 217.871 27.9085 218.541 27.2381C219.211 26.5678 219.564 25.6152 219.564 24.3979V21.9458Z" fill="black"/>
<path d="M254.164 21.7694V24.2568C254.164 27.785 253.265 30.4665 251.448 32.3011C249.632 34.1534 246.898 35.0708 243.248 35.0708C239.58 35.0708 236.758 34.0652 234.765 32.0718C232.773 30.0784 231.767 27.2205 231.767 23.4806V17.7472C231.767 13.5839 232.755 10.4614 234.73 8.3798C236.705 6.29815 239.562 5.25732 243.283 5.25732C246.898 5.25732 249.614 6.15702 251.431 7.95641C253.247 9.75581 254.164 12.3667 254.164 15.8243V18.0648H245.717V15.8067C245.717 13.3193 244.888 12.0668 243.213 12.0668C241.396 12.0668 240.479 13.3017 240.479 15.7714V24.4861C240.479 26.9912 241.379 28.226 243.177 28.226C244.888 28.226 245.734 26.9735 245.717 24.4861V21.7518H254.164V21.7694Z" fill="black"/>
<path d="M266.685 21.593V34.5416H258.044V1.28809H266.685V17.7825H267.144L272.628 5.73364H281.728L275.485 19.1762L282.204 34.5416H272.646L267.197 21.593H266.685Z" fill="black"/>
<path d="M74.7416 44.3008H83.4332V45.8448H76.5665V49.301H81.327V50.845H76.5665V56.2926H74.7488V44.3008H74.7416Z" fill="#333333"/>
<path d="M91.8146 44.3008L95.522 56.2926H93.6466L92.7162 53.2694H88.2658L87.3209 56.2926H85.4816L89.1891 44.3008H91.8146ZM92.2618 51.7253L91.2303 48.3558L90.509 45.7294L89.7877 48.3774L88.7563 51.7253H92.2618Z" fill="#333333"/>
<path d="M99.4891 55.708C98.7101 55.1813 98.1114 54.4454 97.6931 53.5074C97.2747 52.5694 97.0656 51.4943 97.0656 50.2749C97.0656 49.0267 97.2819 47.9372 97.7219 46.9992C98.1547 46.0684 98.7678 45.3469 99.5612 44.8418C100.347 44.3368 101.263 44.0842 102.295 44.0842C103.132 44.0842 103.889 44.2502 104.581 44.5821C105.267 44.914 105.822 45.3902 106.248 45.9963C106.673 46.6096 106.918 47.3311 106.983 48.1681H104.993C104.935 47.6558 104.783 47.2012 104.545 46.8188C104.307 46.4364 103.99 46.1406 103.6 45.9313C103.211 45.7221 102.771 45.6211 102.28 45.6211C101.631 45.6211 101.054 45.8087 100.557 46.1911C100.059 46.5663 99.6694 47.1074 99.3953 47.8145C99.1212 48.5216 98.9842 49.3442 98.9842 50.2821C98.9842 51.2346 99.1212 52.0571 99.4025 52.757C99.6838 53.4569 100.066 53.9908 100.557 54.3732C101.04 54.7484 101.602 54.9432 102.23 54.9432C102.757 54.9432 103.225 54.835 103.629 54.6185C104.033 54.4021 104.365 54.0918 104.61 53.6805C104.855 53.2765 105 52.8003 105.05 52.2663H107.063C106.983 53.1177 106.738 53.8537 106.327 54.4886C105.916 55.1236 105.36 55.6142 104.661 55.9678C103.961 56.3141 103.153 56.4945 102.237 56.4945C101.177 56.5017 100.268 56.2347 99.4891 55.708Z" fill="#333333"/>
<path d="M112.609 45.8448H108.743V44.3008H118.293V45.8448H114.427V56.2926H112.609V45.8448Z" fill="#333333"/>
<path d="M122.39 55.737C121.626 55.2247 121.041 54.5032 120.623 53.5724C120.205 52.6416 119.995 51.5449 119.995 50.2967C119.995 49.0484 120.205 47.9517 120.623 47.0137C121.041 46.0758 121.633 45.3542 122.39 44.8492C123.147 44.3441 124.035 44.0916 125.044 44.0916C126.054 44.0916 126.934 44.3441 127.699 44.8492C128.463 45.3542 129.048 46.0758 129.466 47.0065C129.884 47.9373 130.094 49.034 130.094 50.2967C130.094 51.5449 129.884 52.6416 129.466 53.5796C129.048 54.5176 128.456 55.2391 127.699 55.7442C126.941 56.2493 126.054 56.5018 125.044 56.5018C124.035 56.5018 123.155 56.2421 122.39 55.737ZM122.296 52.7643C122.563 53.4714 122.931 54.0125 123.407 54.3877C123.883 54.7629 124.431 54.9577 125.044 54.9577C125.665 54.9577 126.213 54.7701 126.682 54.3877C127.158 54.0125 127.526 53.4714 127.793 52.7643C128.059 52.0572 128.189 51.2419 128.189 50.2967C128.189 49.3515 128.059 48.5362 127.793 47.8291C127.526 47.122 127.158 46.5808 126.682 46.2056C126.206 45.8304 125.658 45.6356 125.044 45.6356C124.424 45.6356 123.876 45.8232 123.407 46.2056C122.931 46.5808 122.563 47.122 122.296 47.8291C122.029 48.5362 121.9 49.3587 121.9 50.2967C121.9 51.2347 122.037 52.0572 122.296 52.7643Z" fill="#333333"/>
<path d="M132.416 44.3008H137.141C137.927 44.3008 138.641 44.4379 139.261 44.7121C139.881 44.9862 140.372 45.3759 140.718 45.8881C141.064 46.4004 141.245 46.9993 141.245 47.6992C141.245 48.2042 141.115 48.6877 140.855 49.1567C140.596 49.6256 140.228 50.0297 139.759 50.376C139.283 50.7224 138.72 50.9677 138.064 51.112C139.038 51.7974 139.773 52.5839 140.271 53.4642C140.769 54.3444 141.064 55.2824 141.158 56.2853H139.304C139.182 55.2968 138.821 54.3733 138.222 53.5075C137.624 52.6416 136.794 51.8985 135.712 51.2635H134.234V56.2781H132.416V44.3008ZM136.758 49.7339C137.249 49.7339 137.696 49.6473 138.093 49.4813C138.489 49.3154 138.792 49.0773 139.009 48.767C139.225 48.4568 139.333 48.1032 139.333 47.6992C139.333 47.3312 139.232 47.0065 139.038 46.7251C138.843 46.4437 138.583 46.2273 138.251 46.0757C137.92 45.9242 137.544 45.8448 137.133 45.8448H134.234V49.7267H136.758V49.7339Z" fill="#333333"/>
<path d="M147.094 51.4295L143.127 44.3008H145.118L146.972 47.5982L148.039 49.8493L149.121 47.5837L150.975 44.3008H152.951L148.912 51.4295V56.2926H147.094V51.4295Z" fill="#333333"/>
</svg>
