<svg width="12" height="22" viewBox="0 0 12 22" fill="none" xmlns="http://www.w3.org/2000/svg">
<path d="M11.0002 11.0001C11.0008 11.3506 10.8788 11.6902 10.6552 11.9601L3.15517 20.9601C2.90056 21.2664 2.53469 21.459 2.13805 21.4956C1.74142 21.5322 1.34649 21.4097 1.04017 21.1551C0.733844 20.9005 0.541208 20.5346 0.504638 20.138C0.468069 19.7413 0.590561 19.3464 0.845168 19.0401L7.56517 11.0001L1.08517 2.96007C0.96057 2.80664 0.867522 2.6301 0.811375 2.44059C0.755227 2.25108 0.737086 2.05234 0.757995 1.8558C0.778904 1.65926 0.838449 1.46878 0.93321 1.29533C1.02797 1.12187 1.15608 0.968857 1.31017 0.845072C1.4644 0.707703 1.64534 0.603664 1.84165 0.539474C2.03796 0.475286 2.24541 0.452331 2.45101 0.472046C2.6566 0.49176 2.85591 0.55372 3.03644 0.654045C3.21698 0.75437 3.37485 0.890898 3.50017 1.05507L10.7452 10.0551C10.9334 10.3327 11.0232 10.6654 11.0002 11.0001Z" fill="white"/>
</svg>
