<svg width="12" height="22" viewBox="0 0 12 22" fill="none" xmlns="http://www.w3.org/2000/svg">
<path d="M0.999836 10.9999C0.999151 10.6494 1.12121 10.3098 1.34484 10.0399L8.84483 1.03993C9.09944 0.7336 9.46531 0.540964 9.86195 0.504394C10.2586 0.467825 10.6535 0.590317 10.9598 0.844925C11.2662 1.09953 11.4588 1.4654 11.4954 1.86204C11.5319 2.25868 11.4094 2.6536 11.1548 2.95993L4.43483 10.9999L10.9148 19.0399C11.0394 19.1934 11.1325 19.3699 11.1886 19.5594C11.2448 19.7489 11.2629 19.9477 11.242 20.1442C11.2211 20.3407 11.1616 20.5312 11.0668 20.7047C10.972 20.8781 10.8439 21.0311 10.6898 21.1549C10.5356 21.2923 10.3547 21.3963 10.1583 21.4605C9.96204 21.5247 9.75459 21.5477 9.54899 21.528C9.3434 21.5082 9.14409 21.4463 8.96356 21.346C8.78302 21.2456 8.62515 21.1091 8.49983 20.9449L1.25484 11.9449C1.06656 11.6673 0.97678 11.3346 0.999836 10.9999Z" fill="white"/>
</svg>
