<svg width="241" height="244" viewBox="0 0 241 244" fill="none" xmlns="http://www.w3.org/2000/svg">
<line x1="35" y1="33.5" x2="37" y2="33.5" stroke="black"/>
<line x1="35" y1="48.5" x2="37" y2="48.5" stroke="black"/>
<line x1="35" y1="63.5" x2="37" y2="63.5" stroke="black"/>
<line x1="35" y1="63.5" x2="37" y2="63.5" stroke="black"/>
<line x1="35" y1="78.5" x2="37" y2="78.5" stroke="black"/>
<line x1="35" y1="93.5" x2="37" y2="93.5" stroke="black"/>
<line x1="35" y1="108.5" x2="37" y2="108.5" stroke="black"/>
<line x1="35" y1="123.5" x2="37" y2="123.5" stroke="black"/>
<line x1="35" y1="138.5" x2="37" y2="138.5" stroke="black"/>
<line x1="35" y1="153.5" x2="37" y2="153.5" stroke="black"/>
<line x1="35" y1="168.5" x2="37" y2="168.5" stroke="black"/>
<line x1="35" y1="183.5" x2="37" y2="183.5" stroke="black"/>
<line x1="35" y1="198.5" x2="37" y2="198.5" stroke="black"/>
<line x1="35" y1="213.5" x2="37" y2="213.5" stroke="black"/>
<line x1="35" y1="228.5" x2="37" y2="228.5" stroke="black"/>
<line x1="35" y1="243.5" x2="37" y2="243.5" stroke="black"/>
<line x1="52" y1="33.5" x2="54" y2="33.5" stroke="black"/>
<line x1="69" y1="33.5" x2="71" y2="33.5" stroke="black"/>
<line x1="86" y1="33.5" x2="88" y2="33.5" stroke="black"/>
<line x1="103" y1="33.5" x2="105" y2="33.5" stroke="black"/>
<line x1="120" y1="33.5" x2="122" y2="33.5" stroke="black"/>
<line x1="137" y1="33.5" x2="139" y2="33.5" stroke="black"/>
<line x1="154" y1="33.5" x2="156" y2="33.5" stroke="black"/>
<line x1="171" y1="33.5" x2="173" y2="33.5" stroke="black"/>
<line x1="188" y1="33.5" x2="190" y2="33.5" stroke="black"/>
<line x1="205" y1="33.5" x2="207" y2="33.5" stroke="black"/>
<line x1="222" y1="33.5" x2="224" y2="33.5" stroke="black"/>
<line x1="239" y1="33.5" x2="241" y2="33.5" stroke="black"/>
<line x1="52" y1="48.5" x2="54" y2="48.5" stroke="black"/>
<line x1="69" y1="48.5" x2="71" y2="48.5" stroke="black"/>
<line x1="86" y1="48.5" x2="88" y2="48.5" stroke="black"/>
<line x1="103" y1="48.5" x2="105" y2="48.5" stroke="black"/>
<line x1="120" y1="48.5" x2="122" y2="48.5" stroke="black"/>
<line x1="137" y1="48.5" x2="139" y2="48.5" stroke="black"/>
<line x1="154" y1="48.5" x2="156" y2="48.5" stroke="black"/>
<line x1="171" y1="48.5" x2="173" y2="48.5" stroke="black"/>
<line x1="188" y1="48.5" x2="190" y2="48.5" stroke="black"/>
<line x1="205" y1="48.5" x2="207" y2="48.5" stroke="black"/>
<line x1="222" y1="48.5" x2="224" y2="48.5" stroke="black"/>
<line x1="239" y1="48.5" x2="241" y2="48.5" stroke="black"/>
<line x1="52" y1="63.5" x2="54" y2="63.5" stroke="black"/>
<line x1="69" y1="63.5" x2="71" y2="63.5" stroke="black"/>
<line x1="86" y1="63.5" x2="88" y2="63.5" stroke="black"/>
<line x1="103" y1="63.5" x2="105" y2="63.5" stroke="black"/>
<line x1="120" y1="63.5" x2="122" y2="63.5" stroke="black"/>
<line x1="137" y1="63.5" x2="139" y2="63.5" stroke="black"/>
<line x1="154" y1="63.5" x2="156" y2="63.5" stroke="black"/>
<line x1="171" y1="63.5" x2="173" y2="63.5" stroke="black"/>
<line x1="188" y1="63.5" x2="190" y2="63.5" stroke="black"/>
<line x1="205" y1="63.5" x2="207" y2="63.5" stroke="black"/>
<line x1="222" y1="63.5" x2="224" y2="63.5" stroke="black"/>
<line x1="239" y1="63.5" x2="241" y2="63.5" stroke="black"/>
<line x1="52" y1="63.5" x2="54" y2="63.5" stroke="black"/>
<line x1="69" y1="63.5" x2="71" y2="63.5" stroke="black"/>
<line x1="86" y1="63.5" x2="88" y2="63.5" stroke="black"/>
<line x1="103" y1="63.5" x2="105" y2="63.5" stroke="black"/>
<line x1="120" y1="63.5" x2="122" y2="63.5" stroke="black"/>
<line x1="137" y1="63.5" x2="139" y2="63.5" stroke="black"/>
<line x1="154" y1="63.5" x2="156" y2="63.5" stroke="black"/>
<line x1="171" y1="63.5" x2="173" y2="63.5" stroke="black"/>
<line x1="188" y1="63.5" x2="190" y2="63.5" stroke="black"/>
<line x1="205" y1="63.5" x2="207" y2="63.5" stroke="black"/>
<line x1="222" y1="63.5" x2="224" y2="63.5" stroke="black"/>
<line x1="239" y1="63.5" x2="241" y2="63.5" stroke="black"/>
<line x1="52" y1="78.5" x2="54" y2="78.5" stroke="black"/>
<line x1="69" y1="78.5" x2="71" y2="78.5" stroke="black"/>
<line x1="86" y1="78.5" x2="88" y2="78.5" stroke="black"/>
<line x1="103" y1="78.5" x2="105" y2="78.5" stroke="black"/>
<line x1="120" y1="78.5" x2="122" y2="78.5" stroke="black"/>
<line x1="137" y1="78.5" x2="139" y2="78.5" stroke="black"/>
<line x1="154" y1="78.5" x2="156" y2="78.5" stroke="black"/>
<line x1="171" y1="78.5" x2="173" y2="78.5" stroke="black"/>
<line x1="188" y1="78.5" x2="190" y2="78.5" stroke="black"/>
<line x1="205" y1="78.5" x2="207" y2="78.5" stroke="black"/>
<line x1="222" y1="78.5" x2="224" y2="78.5" stroke="black"/>
<line x1="239" y1="78.5" x2="241" y2="78.5" stroke="black"/>
<line x1="52" y1="93.5" x2="54" y2="93.5" stroke="black"/>
<line x1="69" y1="93.5" x2="71" y2="93.5" stroke="black"/>
<line x1="86" y1="93.5" x2="88" y2="93.5" stroke="black"/>
<line x1="103" y1="93.5" x2="105" y2="93.5" stroke="black"/>
<line x1="120" y1="93.5" x2="122" y2="93.5" stroke="black"/>
<line x1="137" y1="93.5" x2="139" y2="93.5" stroke="black"/>
<line x1="154" y1="93.5" x2="156" y2="93.5" stroke="black"/>
<line x1="171" y1="93.5" x2="173" y2="93.5" stroke="black"/>
<line x1="188" y1="93.5" x2="190" y2="93.5" stroke="black"/>
<line x1="205" y1="93.5" x2="207" y2="93.5" stroke="black"/>
<line x1="222" y1="93.5" x2="224" y2="93.5" stroke="black"/>
<line x1="239" y1="93.5" x2="241" y2="93.5" stroke="black"/>
<line x1="52" y1="108.5" x2="54" y2="108.5" stroke="black"/>
<line x1="69" y1="108.5" x2="71" y2="108.5" stroke="black"/>
<line x1="86" y1="108.5" x2="88" y2="108.5" stroke="black"/>
<line x1="103" y1="108.5" x2="105" y2="108.5" stroke="black"/>
<line x1="120" y1="108.5" x2="122" y2="108.5" stroke="black"/>
<line x1="137" y1="108.5" x2="139" y2="108.5" stroke="black"/>
<line x1="154" y1="108.5" x2="156" y2="108.5" stroke="black"/>
<line x1="171" y1="108.5" x2="173" y2="108.5" stroke="black"/>
<line x1="188" y1="108.5" x2="190" y2="108.5" stroke="black"/>
<line x1="205" y1="108.5" x2="207" y2="108.5" stroke="black"/>
<line x1="222" y1="108.5" x2="224" y2="108.5" stroke="black"/>
<line x1="239" y1="108.5" x2="241" y2="108.5" stroke="black"/>
<line x1="52" y1="123.5" x2="54" y2="123.5" stroke="black"/>
<line x1="69" y1="123.5" x2="71" y2="123.5" stroke="black"/>
<line x1="86" y1="123.5" x2="88" y2="123.5" stroke="black"/>
<line x1="103" y1="123.5" x2="105" y2="123.5" stroke="black"/>
<line x1="120" y1="123.5" x2="122" y2="123.5" stroke="black"/>
<line x1="137" y1="123.5" x2="139" y2="123.5" stroke="black"/>
<line x1="154" y1="123.5" x2="156" y2="123.5" stroke="black"/>
<line x1="171" y1="123.5" x2="173" y2="123.5" stroke="black"/>
<line x1="188" y1="123.5" x2="190" y2="123.5" stroke="black"/>
<line x1="205" y1="123.5" x2="207" y2="123.5" stroke="black"/>
<line x1="222" y1="123.5" x2="224" y2="123.5" stroke="black"/>
<line x1="239" y1="123.5" x2="241" y2="123.5" stroke="black"/>
<line x1="52" y1="138.5" x2="54" y2="138.5" stroke="black"/>
<line x1="69" y1="138.5" x2="71" y2="138.5" stroke="black"/>
<line x1="86" y1="138.5" x2="88" y2="138.5" stroke="black"/>
<line x1="103" y1="138.5" x2="105" y2="138.5" stroke="black"/>
<line x1="120" y1="138.5" x2="122" y2="138.5" stroke="black"/>
<line x1="137" y1="138.5" x2="139" y2="138.5" stroke="black"/>
<line x1="154" y1="138.5" x2="156" y2="138.5" stroke="black"/>
<line x1="171" y1="138.5" x2="173" y2="138.5" stroke="black"/>
<line x1="188" y1="138.5" x2="190" y2="138.5" stroke="black"/>
<line x1="205" y1="138.5" x2="207" y2="138.5" stroke="black"/>
<line x1="222" y1="138.5" x2="224" y2="138.5" stroke="black"/>
<line x1="239" y1="138.5" x2="241" y2="138.5" stroke="black"/>
<line x1="52" y1="153.5" x2="54" y2="153.5" stroke="black"/>
<line x1="69" y1="153.5" x2="71" y2="153.5" stroke="black"/>
<line x1="86" y1="153.5" x2="88" y2="153.5" stroke="black"/>
<line x1="103" y1="153.5" x2="105" y2="153.5" stroke="black"/>
<line x1="120" y1="153.5" x2="122" y2="153.5" stroke="black"/>
<line x1="137" y1="153.5" x2="139" y2="153.5" stroke="black"/>
<line x1="154" y1="153.5" x2="156" y2="153.5" stroke="black"/>
<line x1="171" y1="153.5" x2="173" y2="153.5" stroke="black"/>
<line x1="188" y1="153.5" x2="190" y2="153.5" stroke="black"/>
<line x1="205" y1="153.5" x2="207" y2="153.5" stroke="black"/>
<line x1="222" y1="153.5" x2="224" y2="153.5" stroke="black"/>
<line x1="239" y1="153.5" x2="241" y2="153.5" stroke="black"/>
<line x1="52" y1="168.5" x2="54" y2="168.5" stroke="black"/>
<line x1="69" y1="168.5" x2="71" y2="168.5" stroke="black"/>
<line x1="86" y1="168.5" x2="88" y2="168.5" stroke="black"/>
<line x1="103" y1="168.5" x2="105" y2="168.5" stroke="black"/>
<line x1="120" y1="168.5" x2="122" y2="168.5" stroke="black"/>
<line x1="137" y1="168.5" x2="139" y2="168.5" stroke="black"/>
<line x1="154" y1="168.5" x2="156" y2="168.5" stroke="black"/>
<line x1="171" y1="168.5" x2="173" y2="168.5" stroke="black"/>
<line x1="188" y1="168.5" x2="190" y2="168.5" stroke="black"/>
<line x1="205" y1="168.5" x2="207" y2="168.5" stroke="black"/>
<line x1="222" y1="168.5" x2="224" y2="168.5" stroke="black"/>
<line x1="239" y1="168.5" x2="241" y2="168.5" stroke="black"/>
<line x1="52" y1="183.5" x2="54" y2="183.5" stroke="black"/>
<line x1="69" y1="183.5" x2="71" y2="183.5" stroke="black"/>
<line x1="86" y1="183.5" x2="88" y2="183.5" stroke="black"/>
<line x1="103" y1="183.5" x2="105" y2="183.5" stroke="black"/>
<line x1="120" y1="183.5" x2="122" y2="183.5" stroke="black"/>
<line x1="137" y1="183.5" x2="139" y2="183.5" stroke="black"/>
<line x1="154" y1="183.5" x2="156" y2="183.5" stroke="black"/>
<line x1="171" y1="183.5" x2="173" y2="183.5" stroke="black"/>
<line x1="188" y1="183.5" x2="190" y2="183.5" stroke="black"/>
<line x1="205" y1="183.5" x2="207" y2="183.5" stroke="black"/>
<line x1="222" y1="183.5" x2="224" y2="183.5" stroke="black"/>
<line x1="239" y1="183.5" x2="241" y2="183.5" stroke="black"/>
<line x1="52" y1="198.5" x2="54" y2="198.5" stroke="black"/>
<line x1="69" y1="198.5" x2="71" y2="198.5" stroke="black"/>
<line x1="86" y1="198.5" x2="88" y2="198.5" stroke="black"/>
<line x1="103" y1="198.5" x2="105" y2="198.5" stroke="black"/>
<line x1="120" y1="198.5" x2="122" y2="198.5" stroke="black"/>
<line x1="137" y1="198.5" x2="139" y2="198.5" stroke="black"/>
<line x1="154" y1="198.5" x2="156" y2="198.5" stroke="black"/>
<line x1="171" y1="198.5" x2="173" y2="198.5" stroke="black"/>
<line x1="188" y1="198.5" x2="190" y2="198.5" stroke="black"/>
<line x1="205" y1="198.5" x2="207" y2="198.5" stroke="black"/>
<line x1="222" y1="198.5" x2="224" y2="198.5" stroke="black"/>
<line x1="239" y1="198.5" x2="241" y2="198.5" stroke="black"/>
<line x1="52" y1="213.5" x2="54" y2="213.5" stroke="black"/>
<line x1="69" y1="213.5" x2="71" y2="213.5" stroke="black"/>
<line x1="86" y1="213.5" x2="88" y2="213.5" stroke="black"/>
<line x1="103" y1="213.5" x2="105" y2="213.5" stroke="black"/>
<line x1="120" y1="213.5" x2="122" y2="213.5" stroke="black"/>
<line x1="137" y1="213.5" x2="139" y2="213.5" stroke="black"/>
<line x1="154" y1="213.5" x2="156" y2="213.5" stroke="black"/>
<line x1="171" y1="213.5" x2="173" y2="213.5" stroke="black"/>
<line x1="188" y1="213.5" x2="190" y2="213.5" stroke="black"/>
<line x1="205" y1="213.5" x2="207" y2="213.5" stroke="black"/>
<line x1="222" y1="213.5" x2="224" y2="213.5" stroke="black"/>
<line x1="239" y1="213.5" x2="241" y2="213.5" stroke="black"/>
<line x1="52" y1="228.5" x2="54" y2="228.5" stroke="black"/>
<line x1="69" y1="228.5" x2="71" y2="228.5" stroke="black"/>
<line x1="86" y1="228.5" x2="88" y2="228.5" stroke="black"/>
<line x1="103" y1="228.5" x2="105" y2="228.5" stroke="black"/>
<line x1="120" y1="228.5" x2="122" y2="228.5" stroke="black"/>
<line x1="137" y1="228.5" x2="139" y2="228.5" stroke="black"/>
<line x1="154" y1="228.5" x2="156" y2="228.5" stroke="black"/>
<line x1="171" y1="228.5" x2="173" y2="228.5" stroke="black"/>
<line x1="188" y1="228.5" x2="190" y2="228.5" stroke="black"/>
<line x1="205" y1="228.5" x2="207" y2="228.5" stroke="black"/>
<line x1="222" y1="228.5" x2="224" y2="228.5" stroke="black"/>
<line x1="239" y1="228.5" x2="241" y2="228.5" stroke="black"/>
<line x1="52" y1="243.5" x2="54" y2="243.5" stroke="black"/>
<line x1="69" y1="243.5" x2="71" y2="243.5" stroke="black"/>
<line x1="86" y1="243.5" x2="88" y2="243.5" stroke="black"/>
<line x1="103" y1="243.5" x2="105" y2="243.5" stroke="black"/>
<line x1="120" y1="243.5" x2="122" y2="243.5" stroke="black"/>
<line x1="137" y1="243.5" x2="139" y2="243.5" stroke="black"/>
<line x1="154" y1="243.5" x2="156" y2="243.5" stroke="black"/>
<line x1="171" y1="243.5" x2="173" y2="243.5" stroke="black"/>
<line x1="188" y1="243.5" x2="190" y2="243.5" stroke="black"/>
<line x1="205" y1="243.5" x2="207" y2="243.5" stroke="black"/>
<line x1="222" y1="243.5" x2="224" y2="243.5" stroke="black"/>
<line x1="239" y1="243.5" x2="241" y2="243.5" stroke="black"/>
<circle cx="60.5" cy="60.5" r="55.5" stroke="#6EB6C1" stroke-width="10"/>
</svg>
