<svg width="226" height="211" viewBox="0 0 226 211" fill="none" xmlns="http://www.w3.org/2000/svg">
<line y1="0.5" x2="2" y2="0.5" stroke="black"/>
<line y1="15.5" x2="2" y2="15.5" stroke="black"/>
<line y1="30.5" x2="2" y2="30.5" stroke="black"/>
<line y1="30.5" x2="2" y2="30.5" stroke="black"/>
<line y1="45.5" x2="2" y2="45.5" stroke="black"/>
<line y1="60.5" x2="2" y2="60.5" stroke="black"/>
<line y1="75.5" x2="2" y2="75.5" stroke="black"/>
<line y1="90.5" x2="2" y2="90.5" stroke="black"/>
<line y1="105.5" x2="2" y2="105.5" stroke="black"/>
<line y1="120.5" x2="2" y2="120.5" stroke="black"/>
<line y1="135.5" x2="2" y2="135.5" stroke="black"/>
<line y1="150.5" x2="2" y2="150.5" stroke="black"/>
<line y1="165.5" x2="2" y2="165.5" stroke="black"/>
<line y1="180.5" x2="2" y2="180.5" stroke="black"/>
<line y1="195.5" x2="2" y2="195.5" stroke="black"/>
<line y1="210.5" x2="2" y2="210.5" stroke="black"/>
<line x1="17" y1="0.5" x2="19" y2="0.5" stroke="black"/>
<line x1="34" y1="0.5" x2="36" y2="0.5" stroke="black"/>
<line x1="51" y1="0.5" x2="53" y2="0.5" stroke="black"/>
<line x1="68" y1="0.5" x2="70" y2="0.5" stroke="black"/>
<line x1="85" y1="0.5" x2="87" y2="0.5" stroke="black"/>
<line x1="102" y1="0.5" x2="104" y2="0.5" stroke="black"/>
<line x1="119" y1="0.5" x2="121" y2="0.5" stroke="black"/>
<line x1="136" y1="0.5" x2="138" y2="0.5" stroke="black"/>
<line x1="153" y1="0.5" x2="155" y2="0.5" stroke="black"/>
<line x1="170" y1="0.5" x2="172" y2="0.5" stroke="black"/>
<line x1="187" y1="0.5" x2="189" y2="0.5" stroke="black"/>
<line x1="204" y1="0.5" x2="206" y2="0.5" stroke="black"/>
<line x1="17" y1="15.5" x2="19" y2="15.5" stroke="black"/>
<line x1="34" y1="15.5" x2="36" y2="15.5" stroke="black"/>
<line x1="51" y1="15.5" x2="53" y2="15.5" stroke="black"/>
<line x1="68" y1="15.5" x2="70" y2="15.5" stroke="black"/>
<line x1="85" y1="15.5" x2="87" y2="15.5" stroke="black"/>
<line x1="102" y1="15.5" x2="104" y2="15.5" stroke="black"/>
<line x1="119" y1="15.5" x2="121" y2="15.5" stroke="black"/>
<line x1="136" y1="15.5" x2="138" y2="15.5" stroke="black"/>
<line x1="153" y1="15.5" x2="155" y2="15.5" stroke="black"/>
<line x1="170" y1="15.5" x2="172" y2="15.5" stroke="black"/>
<line x1="187" y1="15.5" x2="189" y2="15.5" stroke="black"/>
<line x1="204" y1="15.5" x2="206" y2="15.5" stroke="black"/>
<line x1="17" y1="30.5" x2="19" y2="30.5" stroke="black"/>
<line x1="34" y1="30.5" x2="36" y2="30.5" stroke="black"/>
<line x1="51" y1="30.5" x2="53" y2="30.5" stroke="black"/>
<line x1="68" y1="30.5" x2="70" y2="30.5" stroke="black"/>
<line x1="85" y1="30.5" x2="87" y2="30.5" stroke="black"/>
<line x1="102" y1="30.5" x2="104" y2="30.5" stroke="black"/>
<line x1="119" y1="30.5" x2="121" y2="30.5" stroke="black"/>
<line x1="136" y1="30.5" x2="138" y2="30.5" stroke="black"/>
<line x1="153" y1="30.5" x2="155" y2="30.5" stroke="black"/>
<line x1="170" y1="30.5" x2="172" y2="30.5" stroke="black"/>
<line x1="187" y1="30.5" x2="189" y2="30.5" stroke="black"/>
<line x1="204" y1="30.5" x2="206" y2="30.5" stroke="black"/>
<line x1="17" y1="30.5" x2="19" y2="30.5" stroke="black"/>
<line x1="34" y1="30.5" x2="36" y2="30.5" stroke="black"/>
<line x1="51" y1="30.5" x2="53" y2="30.5" stroke="black"/>
<line x1="68" y1="30.5" x2="70" y2="30.5" stroke="black"/>
<line x1="85" y1="30.5" x2="87" y2="30.5" stroke="black"/>
<line x1="102" y1="30.5" x2="104" y2="30.5" stroke="black"/>
<line x1="119" y1="30.5" x2="121" y2="30.5" stroke="black"/>
<line x1="136" y1="30.5" x2="138" y2="30.5" stroke="black"/>
<line x1="153" y1="30.5" x2="155" y2="30.5" stroke="black"/>
<line x1="170" y1="30.5" x2="172" y2="30.5" stroke="black"/>
<line x1="187" y1="30.5" x2="189" y2="30.5" stroke="black"/>
<line x1="204" y1="30.5" x2="206" y2="30.5" stroke="black"/>
<line x1="17" y1="45.5" x2="19" y2="45.5" stroke="black"/>
<line x1="34" y1="45.5" x2="36" y2="45.5" stroke="black"/>
<line x1="51" y1="45.5" x2="53" y2="45.5" stroke="black"/>
<line x1="68" y1="45.5" x2="70" y2="45.5" stroke="black"/>
<line x1="85" y1="45.5" x2="87" y2="45.5" stroke="black"/>
<line x1="102" y1="45.5" x2="104" y2="45.5" stroke="black"/>
<line x1="119" y1="45.5" x2="121" y2="45.5" stroke="black"/>
<line x1="136" y1="45.5" x2="138" y2="45.5" stroke="black"/>
<line x1="153" y1="45.5" x2="155" y2="45.5" stroke="black"/>
<line x1="170" y1="45.5" x2="172" y2="45.5" stroke="black"/>
<line x1="187" y1="45.5" x2="189" y2="45.5" stroke="black"/>
<line x1="204" y1="45.5" x2="206" y2="45.5" stroke="black"/>
<line x1="17" y1="60.5" x2="19" y2="60.5" stroke="black"/>
<line x1="34" y1="60.5" x2="36" y2="60.5" stroke="black"/>
<line x1="51" y1="60.5" x2="53" y2="60.5" stroke="black"/>
<line x1="68" y1="60.5" x2="70" y2="60.5" stroke="black"/>
<line x1="85" y1="60.5" x2="87" y2="60.5" stroke="black"/>
<line x1="102" y1="60.5" x2="104" y2="60.5" stroke="black"/>
<line x1="119" y1="60.5" x2="121" y2="60.5" stroke="black"/>
<line x1="136" y1="60.5" x2="138" y2="60.5" stroke="black"/>
<line x1="153" y1="60.5" x2="155" y2="60.5" stroke="black"/>
<line x1="170" y1="60.5" x2="172" y2="60.5" stroke="black"/>
<line x1="187" y1="60.5" x2="189" y2="60.5" stroke="black"/>
<line x1="204" y1="60.5" x2="206" y2="60.5" stroke="black"/>
<line x1="17" y1="75.5" x2="19" y2="75.5" stroke="black"/>
<line x1="34" y1="75.5" x2="36" y2="75.5" stroke="black"/>
<line x1="51" y1="75.5" x2="53" y2="75.5" stroke="black"/>
<line x1="68" y1="75.5" x2="70" y2="75.5" stroke="black"/>
<line x1="85" y1="75.5" x2="87" y2="75.5" stroke="black"/>
<line x1="102" y1="75.5" x2="104" y2="75.5" stroke="black"/>
<line x1="119" y1="75.5" x2="121" y2="75.5" stroke="black"/>
<line x1="136" y1="75.5" x2="138" y2="75.5" stroke="black"/>
<line x1="153" y1="75.5" x2="155" y2="75.5" stroke="black"/>
<line x1="170" y1="75.5" x2="172" y2="75.5" stroke="black"/>
<line x1="187" y1="75.5" x2="189" y2="75.5" stroke="black"/>
<line x1="204" y1="75.5" x2="206" y2="75.5" stroke="black"/>
<line x1="17" y1="90.5" x2="19" y2="90.5" stroke="black"/>
<line x1="34" y1="90.5" x2="36" y2="90.5" stroke="black"/>
<line x1="51" y1="90.5" x2="53" y2="90.5" stroke="black"/>
<line x1="68" y1="90.5" x2="70" y2="90.5" stroke="black"/>
<line x1="85" y1="90.5" x2="87" y2="90.5" stroke="black"/>
<line x1="102" y1="90.5" x2="104" y2="90.5" stroke="black"/>
<line x1="119" y1="90.5" x2="121" y2="90.5" stroke="black"/>
<line x1="136" y1="90.5" x2="138" y2="90.5" stroke="black"/>
<line x1="153" y1="90.5" x2="155" y2="90.5" stroke="black"/>
<line x1="170" y1="90.5" x2="172" y2="90.5" stroke="black"/>
<line x1="187" y1="90.5" x2="189" y2="90.5" stroke="black"/>
<line x1="204" y1="90.5" x2="206" y2="90.5" stroke="black"/>
<line x1="17" y1="105.5" x2="19" y2="105.5" stroke="black"/>
<line x1="34" y1="105.5" x2="36" y2="105.5" stroke="black"/>
<line x1="51" y1="105.5" x2="53" y2="105.5" stroke="black"/>
<line x1="68" y1="105.5" x2="70" y2="105.5" stroke="black"/>
<line x1="85" y1="105.5" x2="87" y2="105.5" stroke="black"/>
<line x1="102" y1="105.5" x2="104" y2="105.5" stroke="black"/>
<line x1="119" y1="105.5" x2="121" y2="105.5" stroke="black"/>
<line x1="136" y1="105.5" x2="138" y2="105.5" stroke="black"/>
<line x1="153" y1="105.5" x2="155" y2="105.5" stroke="black"/>
<line x1="170" y1="105.5" x2="172" y2="105.5" stroke="black"/>
<line x1="187" y1="105.5" x2="189" y2="105.5" stroke="black"/>
<line x1="204" y1="105.5" x2="206" y2="105.5" stroke="black"/>
<line x1="17" y1="120.5" x2="19" y2="120.5" stroke="black"/>
<line x1="34" y1="120.5" x2="36" y2="120.5" stroke="black"/>
<line x1="51" y1="120.5" x2="53" y2="120.5" stroke="black"/>
<line x1="68" y1="120.5" x2="70" y2="120.5" stroke="black"/>
<line x1="85" y1="120.5" x2="87" y2="120.5" stroke="black"/>
<line x1="102" y1="120.5" x2="104" y2="120.5" stroke="black"/>
<line x1="119" y1="120.5" x2="121" y2="120.5" stroke="black"/>
<line x1="136" y1="120.5" x2="138" y2="120.5" stroke="black"/>
<line x1="153" y1="120.5" x2="155" y2="120.5" stroke="black"/>
<line x1="170" y1="120.5" x2="172" y2="120.5" stroke="black"/>
<line x1="187" y1="120.5" x2="189" y2="120.5" stroke="black"/>
<line x1="204" y1="120.5" x2="206" y2="120.5" stroke="black"/>
<line x1="17" y1="135.5" x2="19" y2="135.5" stroke="black"/>
<line x1="34" y1="135.5" x2="36" y2="135.5" stroke="black"/>
<line x1="51" y1="135.5" x2="53" y2="135.5" stroke="black"/>
<line x1="68" y1="135.5" x2="70" y2="135.5" stroke="black"/>
<line x1="85" y1="135.5" x2="87" y2="135.5" stroke="black"/>
<line x1="102" y1="135.5" x2="104" y2="135.5" stroke="black"/>
<line x1="119" y1="135.5" x2="121" y2="135.5" stroke="black"/>
<line x1="136" y1="135.5" x2="138" y2="135.5" stroke="black"/>
<line x1="153" y1="135.5" x2="155" y2="135.5" stroke="black"/>
<line x1="170" y1="135.5" x2="172" y2="135.5" stroke="black"/>
<line x1="187" y1="135.5" x2="189" y2="135.5" stroke="black"/>
<line x1="204" y1="135.5" x2="206" y2="135.5" stroke="black"/>
<line x1="17" y1="150.5" x2="19" y2="150.5" stroke="black"/>
<line x1="34" y1="150.5" x2="36" y2="150.5" stroke="black"/>
<line x1="51" y1="150.5" x2="53" y2="150.5" stroke="black"/>
<line x1="68" y1="150.5" x2="70" y2="150.5" stroke="black"/>
<line x1="85" y1="150.5" x2="87" y2="150.5" stroke="black"/>
<line x1="102" y1="150.5" x2="104" y2="150.5" stroke="black"/>
<line x1="119" y1="150.5" x2="121" y2="150.5" stroke="black"/>
<line x1="136" y1="150.5" x2="138" y2="150.5" stroke="black"/>
<line x1="153" y1="150.5" x2="155" y2="150.5" stroke="black"/>
<line x1="170" y1="150.5" x2="172" y2="150.5" stroke="black"/>
<line x1="187" y1="150.5" x2="189" y2="150.5" stroke="black"/>
<line x1="204" y1="150.5" x2="206" y2="150.5" stroke="black"/>
<line x1="17" y1="165.5" x2="19" y2="165.5" stroke="black"/>
<line x1="34" y1="165.5" x2="36" y2="165.5" stroke="black"/>
<line x1="51" y1="165.5" x2="53" y2="165.5" stroke="black"/>
<line x1="68" y1="165.5" x2="70" y2="165.5" stroke="black"/>
<line x1="85" y1="165.5" x2="87" y2="165.5" stroke="black"/>
<line x1="102" y1="165.5" x2="104" y2="165.5" stroke="black"/>
<line x1="119" y1="165.5" x2="121" y2="165.5" stroke="black"/>
<line x1="136" y1="165.5" x2="138" y2="165.5" stroke="black"/>
<line x1="153" y1="165.5" x2="155" y2="165.5" stroke="black"/>
<line x1="170" y1="165.5" x2="172" y2="165.5" stroke="black"/>
<line x1="187" y1="165.5" x2="189" y2="165.5" stroke="black"/>
<line x1="204" y1="165.5" x2="206" y2="165.5" stroke="black"/>
<line x1="17" y1="180.5" x2="19" y2="180.5" stroke="black"/>
<line x1="34" y1="180.5" x2="36" y2="180.5" stroke="black"/>
<line x1="51" y1="180.5" x2="53" y2="180.5" stroke="black"/>
<line x1="68" y1="180.5" x2="70" y2="180.5" stroke="black"/>
<line x1="85" y1="180.5" x2="87" y2="180.5" stroke="black"/>
<line x1="102" y1="180.5" x2="104" y2="180.5" stroke="black"/>
<line x1="119" y1="180.5" x2="121" y2="180.5" stroke="black"/>
<line x1="136" y1="180.5" x2="138" y2="180.5" stroke="black"/>
<line x1="153" y1="180.5" x2="155" y2="180.5" stroke="black"/>
<line x1="170" y1="180.5" x2="172" y2="180.5" stroke="black"/>
<line x1="187" y1="180.5" x2="189" y2="180.5" stroke="black"/>
<line x1="204" y1="180.5" x2="206" y2="180.5" stroke="black"/>
<line x1="17" y1="195.5" x2="19" y2="195.5" stroke="black"/>
<line x1="34" y1="195.5" x2="36" y2="195.5" stroke="black"/>
<line x1="51" y1="195.5" x2="53" y2="195.5" stroke="black"/>
<line x1="68" y1="195.5" x2="70" y2="195.5" stroke="black"/>
<line x1="85" y1="195.5" x2="87" y2="195.5" stroke="black"/>
<line x1="102" y1="195.5" x2="104" y2="195.5" stroke="black"/>
<line x1="119" y1="195.5" x2="121" y2="195.5" stroke="black"/>
<line x1="136" y1="195.5" x2="138" y2="195.5" stroke="black"/>
<line x1="153" y1="195.5" x2="155" y2="195.5" stroke="black"/>
<line x1="170" y1="195.5" x2="172" y2="195.5" stroke="black"/>
<line x1="187" y1="195.5" x2="189" y2="195.5" stroke="black"/>
<line x1="204" y1="195.5" x2="206" y2="195.5" stroke="black"/>
<line x1="17" y1="210.5" x2="19" y2="210.5" stroke="black"/>
<line x1="34" y1="210.5" x2="36" y2="210.5" stroke="black"/>
<line x1="51" y1="210.5" x2="53" y2="210.5" stroke="black"/>
<line x1="68" y1="210.5" x2="70" y2="210.5" stroke="black"/>
<line x1="85" y1="210.5" x2="87" y2="210.5" stroke="black"/>
<line x1="102" y1="210.5" x2="104" y2="210.5" stroke="black"/>
<line x1="119" y1="210.5" x2="121" y2="210.5" stroke="black"/>
<line x1="136" y1="210.5" x2="138" y2="210.5" stroke="black"/>
<line x1="153" y1="210.5" x2="155" y2="210.5" stroke="black"/>
<line x1="170" y1="210.5" x2="172" y2="210.5" stroke="black"/>
<line x1="187" y1="210.5" x2="189" y2="210.5" stroke="black"/>
<line x1="204" y1="210.5" x2="206" y2="210.5" stroke="black"/>
<circle cx="165.5" cy="115.5" r="55.5" stroke="#FD8977" stroke-width="10"/>
</svg>
