<svg width="310" height="295" viewBox="0 0 310 295" fill="none" xmlns="http://www.w3.org/2000/svg">
<line x1="101.714" y1="41.1604" x2="103.727" y2="41.1604" stroke="black"/>
<line x1="101.714" y1="56.259" x2="103.727" y2="56.259" stroke="black"/>
<line x1="101.714" y1="71.358" x2="103.727" y2="71.358" stroke="black"/>
<line x1="101.714" y1="71.358" x2="103.727" y2="71.358" stroke="black"/>
<line x1="101.714" y1="86.4567" x2="103.727" y2="86.4567" stroke="black"/>
<line x1="101.714" y1="101.555" x2="103.727" y2="101.555" stroke="black"/>
<line x1="101.714" y1="116.654" x2="103.727" y2="116.654" stroke="black"/>
<line x1="101.714" y1="131.753" x2="103.727" y2="131.753" stroke="black"/>
<line x1="101.714" y1="146.852" x2="103.727" y2="146.852" stroke="black"/>
<line x1="101.714" y1="161.95" x2="103.727" y2="161.95" stroke="black"/>
<line x1="101.714" y1="177.049" x2="103.727" y2="177.049" stroke="black"/>
<line x1="101.714" y1="192.148" x2="103.727" y2="192.148" stroke="black"/>
<line x1="101.714" y1="207.247" x2="103.727" y2="207.247" stroke="black"/>
<line x1="101.714" y1="222.345" x2="103.727" y2="222.345" stroke="black"/>
<line x1="101.714" y1="237.444" x2="103.727" y2="237.444" stroke="black"/>
<line x1="101.714" y1="252.543" x2="103.727" y2="252.543" stroke="black"/>
<line x1="118.826" y1="41.1604" x2="120.839" y2="41.1604" stroke="black"/>
<line x1="135.938" y1="41.1604" x2="137.951" y2="41.1604" stroke="black"/>
<line x1="153.05" y1="41.1604" x2="155.063" y2="41.1604" stroke="black"/>
<line x1="170.161" y1="41.1604" x2="172.175" y2="41.1604" stroke="black"/>
<line x1="187.273" y1="41.1604" x2="189.286" y2="41.1604" stroke="black"/>
<line x1="204.385" y1="41.1604" x2="206.399" y2="41.1604" stroke="black"/>
<line x1="221.497" y1="41.1604" x2="223.51" y2="41.1604" stroke="black"/>
<line x1="238.609" y1="41.1604" x2="240.622" y2="41.1604" stroke="black"/>
<line x1="255.721" y1="41.1604" x2="257.734" y2="41.1604" stroke="black"/>
<line x1="272.833" y1="41.1604" x2="274.846" y2="41.1604" stroke="black"/>
<line x1="289.945" y1="41.1604" x2="291.958" y2="41.1604" stroke="black"/>
<line x1="307.057" y1="41.1604" x2="309.07" y2="41.1604" stroke="black"/>
<line x1="118.826" y1="56.259" x2="120.839" y2="56.259" stroke="black"/>
<line x1="135.938" y1="56.259" x2="137.951" y2="56.259" stroke="black"/>
<line x1="153.05" y1="56.259" x2="155.063" y2="56.259" stroke="black"/>
<line x1="170.161" y1="56.259" x2="172.175" y2="56.259" stroke="black"/>
<line x1="187.273" y1="56.259" x2="189.286" y2="56.259" stroke="black"/>
<line x1="204.385" y1="56.259" x2="206.399" y2="56.259" stroke="black"/>
<line x1="221.497" y1="56.259" x2="223.51" y2="56.259" stroke="black"/>
<line x1="238.609" y1="56.259" x2="240.622" y2="56.259" stroke="black"/>
<line x1="255.721" y1="56.259" x2="257.734" y2="56.259" stroke="black"/>
<line x1="272.833" y1="56.259" x2="274.846" y2="56.259" stroke="black"/>
<line x1="289.945" y1="56.259" x2="291.958" y2="56.259" stroke="black"/>
<line x1="307.057" y1="56.259" x2="309.07" y2="56.259" stroke="black"/>
<line x1="118.826" y1="71.358" x2="120.839" y2="71.358" stroke="black"/>
<line x1="135.938" y1="71.358" x2="137.951" y2="71.358" stroke="black"/>
<line x1="153.05" y1="71.358" x2="155.063" y2="71.358" stroke="black"/>
<line x1="170.161" y1="71.358" x2="172.175" y2="71.358" stroke="black"/>
<line x1="187.273" y1="71.358" x2="189.286" y2="71.358" stroke="black"/>
<line x1="204.385" y1="71.358" x2="206.399" y2="71.358" stroke="black"/>
<line x1="221.497" y1="71.358" x2="223.51" y2="71.358" stroke="black"/>
<line x1="238.609" y1="71.358" x2="240.622" y2="71.358" stroke="black"/>
<line x1="255.721" y1="71.358" x2="257.734" y2="71.358" stroke="black"/>
<line x1="272.833" y1="71.358" x2="274.846" y2="71.358" stroke="black"/>
<line x1="289.945" y1="71.358" x2="291.958" y2="71.358" stroke="black"/>
<line x1="307.057" y1="71.358" x2="309.07" y2="71.358" stroke="black"/>
<line x1="118.826" y1="71.358" x2="120.839" y2="71.358" stroke="black"/>
<line x1="135.938" y1="71.358" x2="137.951" y2="71.358" stroke="black"/>
<line x1="153.05" y1="71.358" x2="155.063" y2="71.358" stroke="black"/>
<line x1="170.161" y1="71.358" x2="172.175" y2="71.358" stroke="black"/>
<line x1="187.273" y1="71.358" x2="189.286" y2="71.358" stroke="black"/>
<line x1="204.385" y1="71.358" x2="206.399" y2="71.358" stroke="black"/>
<line x1="221.497" y1="71.358" x2="223.51" y2="71.358" stroke="black"/>
<line x1="238.609" y1="71.358" x2="240.622" y2="71.358" stroke="black"/>
<line x1="255.721" y1="71.358" x2="257.734" y2="71.358" stroke="black"/>
<line x1="272.833" y1="71.358" x2="274.846" y2="71.358" stroke="black"/>
<line x1="289.945" y1="71.358" x2="291.958" y2="71.358" stroke="black"/>
<line x1="307.057" y1="71.358" x2="309.07" y2="71.358" stroke="black"/>
<line x1="118.826" y1="86.4567" x2="120.839" y2="86.4567" stroke="black"/>
<line x1="135.938" y1="86.4567" x2="137.951" y2="86.4567" stroke="black"/>
<line x1="153.05" y1="86.4567" x2="155.063" y2="86.4567" stroke="black"/>
<line x1="170.161" y1="86.4567" x2="172.175" y2="86.4567" stroke="black"/>
<line x1="187.273" y1="86.4567" x2="189.286" y2="86.4567" stroke="black"/>
<line x1="204.385" y1="86.4567" x2="206.399" y2="86.4567" stroke="black"/>
<line x1="221.497" y1="86.4567" x2="223.51" y2="86.4567" stroke="black"/>
<line x1="238.609" y1="86.4567" x2="240.622" y2="86.4567" stroke="black"/>
<line x1="255.721" y1="86.4567" x2="257.734" y2="86.4567" stroke="black"/>
<line x1="272.833" y1="86.4567" x2="274.846" y2="86.4567" stroke="black"/>
<line x1="289.945" y1="86.4567" x2="291.958" y2="86.4567" stroke="black"/>
<line x1="307.057" y1="86.4567" x2="309.07" y2="86.4567" stroke="black"/>
<line x1="118.826" y1="101.555" x2="120.839" y2="101.555" stroke="black"/>
<line x1="135.938" y1="101.555" x2="137.951" y2="101.555" stroke="black"/>
<line x1="153.05" y1="101.555" x2="155.063" y2="101.555" stroke="black"/>
<line x1="170.161" y1="101.555" x2="172.175" y2="101.555" stroke="black"/>
<line x1="187.273" y1="101.555" x2="189.286" y2="101.555" stroke="black"/>
<line x1="204.385" y1="101.555" x2="206.399" y2="101.555" stroke="black"/>
<line x1="221.497" y1="101.555" x2="223.51" y2="101.555" stroke="black"/>
<line x1="238.609" y1="101.555" x2="240.622" y2="101.555" stroke="black"/>
<line x1="255.721" y1="101.555" x2="257.734" y2="101.555" stroke="black"/>
<line x1="272.833" y1="101.555" x2="274.846" y2="101.555" stroke="black"/>
<line x1="289.945" y1="101.555" x2="291.958" y2="101.555" stroke="black"/>
<line x1="307.057" y1="101.555" x2="309.07" y2="101.555" stroke="black"/>
<line x1="118.826" y1="116.654" x2="120.839" y2="116.654" stroke="black"/>
<line x1="135.938" y1="116.654" x2="137.951" y2="116.654" stroke="black"/>
<line x1="153.05" y1="116.654" x2="155.063" y2="116.654" stroke="black"/>
<line x1="170.161" y1="116.654" x2="172.175" y2="116.654" stroke="black"/>
<line x1="187.273" y1="116.654" x2="189.286" y2="116.654" stroke="black"/>
<line x1="204.385" y1="116.654" x2="206.399" y2="116.654" stroke="black"/>
<line x1="221.497" y1="116.654" x2="223.51" y2="116.654" stroke="black"/>
<line x1="238.609" y1="116.654" x2="240.622" y2="116.654" stroke="black"/>
<line x1="255.721" y1="116.654" x2="257.734" y2="116.654" stroke="black"/>
<line x1="272.833" y1="116.654" x2="274.846" y2="116.654" stroke="black"/>
<line x1="289.945" y1="116.654" x2="291.958" y2="116.654" stroke="black"/>
<line x1="307.057" y1="116.654" x2="309.07" y2="116.654" stroke="black"/>
<line x1="118.826" y1="131.753" x2="120.839" y2="131.753" stroke="black"/>
<line x1="135.938" y1="131.753" x2="137.951" y2="131.753" stroke="black"/>
<line x1="153.05" y1="131.753" x2="155.063" y2="131.753" stroke="black"/>
<line x1="170.161" y1="131.753" x2="172.175" y2="131.753" stroke="black"/>
<line x1="187.273" y1="131.753" x2="189.286" y2="131.753" stroke="black"/>
<line x1="204.385" y1="131.753" x2="206.399" y2="131.753" stroke="black"/>
<line x1="221.497" y1="131.753" x2="223.51" y2="131.753" stroke="black"/>
<line x1="238.609" y1="131.753" x2="240.622" y2="131.753" stroke="black"/>
<line x1="255.721" y1="131.753" x2="257.734" y2="131.753" stroke="black"/>
<line x1="272.833" y1="131.753" x2="274.846" y2="131.753" stroke="black"/>
<line x1="289.945" y1="131.753" x2="291.958" y2="131.753" stroke="black"/>
<line x1="307.057" y1="131.753" x2="309.07" y2="131.753" stroke="black"/>
<line x1="118.826" y1="146.852" x2="120.839" y2="146.852" stroke="black"/>
<line x1="135.938" y1="146.852" x2="137.951" y2="146.852" stroke="black"/>
<line x1="153.05" y1="146.852" x2="155.063" y2="146.852" stroke="black"/>
<line x1="170.161" y1="146.852" x2="172.175" y2="146.852" stroke="black"/>
<line x1="187.273" y1="146.852" x2="189.286" y2="146.852" stroke="black"/>
<line x1="204.385" y1="146.852" x2="206.399" y2="146.852" stroke="black"/>
<line x1="221.497" y1="146.852" x2="223.51" y2="146.852" stroke="black"/>
<line x1="238.609" y1="146.852" x2="240.622" y2="146.852" stroke="black"/>
<line x1="255.721" y1="146.852" x2="257.734" y2="146.852" stroke="black"/>
<line x1="272.833" y1="146.852" x2="274.846" y2="146.852" stroke="black"/>
<line x1="289.945" y1="146.852" x2="291.958" y2="146.852" stroke="black"/>
<line x1="307.057" y1="146.852" x2="309.07" y2="146.852" stroke="black"/>
<line x1="118.826" y1="161.95" x2="120.839" y2="161.95" stroke="black"/>
<line x1="135.938" y1="161.95" x2="137.951" y2="161.95" stroke="black"/>
<line x1="153.05" y1="161.95" x2="155.063" y2="161.95" stroke="black"/>
<line x1="170.161" y1="161.95" x2="172.175" y2="161.95" stroke="black"/>
<line x1="187.273" y1="161.95" x2="189.286" y2="161.95" stroke="black"/>
<line x1="204.385" y1="161.95" x2="206.399" y2="161.95" stroke="black"/>
<line x1="221.497" y1="161.95" x2="223.51" y2="161.95" stroke="black"/>
<line x1="238.609" y1="161.95" x2="240.622" y2="161.95" stroke="black"/>
<line x1="255.721" y1="161.95" x2="257.734" y2="161.95" stroke="black"/>
<line x1="272.833" y1="161.95" x2="274.846" y2="161.95" stroke="black"/>
<line x1="289.945" y1="161.95" x2="291.958" y2="161.95" stroke="black"/>
<line x1="307.057" y1="161.95" x2="309.07" y2="161.95" stroke="black"/>
<line x1="118.826" y1="177.049" x2="120.839" y2="177.049" stroke="black"/>
<line x1="135.938" y1="177.049" x2="137.951" y2="177.049" stroke="black"/>
<line x1="153.05" y1="177.049" x2="155.063" y2="177.049" stroke="black"/>
<line x1="170.161" y1="177.049" x2="172.175" y2="177.049" stroke="black"/>
<line x1="187.273" y1="177.049" x2="189.286" y2="177.049" stroke="black"/>
<line x1="204.385" y1="177.049" x2="206.399" y2="177.049" stroke="black"/>
<line x1="221.497" y1="177.049" x2="223.51" y2="177.049" stroke="black"/>
<line x1="238.609" y1="177.049" x2="240.622" y2="177.049" stroke="black"/>
<line x1="255.721" y1="177.049" x2="257.734" y2="177.049" stroke="black"/>
<line x1="272.833" y1="177.049" x2="274.846" y2="177.049" stroke="black"/>
<line x1="289.945" y1="177.049" x2="291.958" y2="177.049" stroke="black"/>
<line x1="307.057" y1="177.049" x2="309.07" y2="177.049" stroke="black"/>
<line x1="118.826" y1="192.148" x2="120.839" y2="192.148" stroke="black"/>
<line x1="135.938" y1="192.148" x2="137.951" y2="192.148" stroke="black"/>
<line x1="153.05" y1="192.148" x2="155.063" y2="192.148" stroke="black"/>
<line x1="170.161" y1="192.148" x2="172.175" y2="192.148" stroke="black"/>
<line x1="187.273" y1="192.148" x2="189.286" y2="192.148" stroke="black"/>
<line x1="204.385" y1="192.148" x2="206.399" y2="192.148" stroke="black"/>
<line x1="221.497" y1="192.148" x2="223.51" y2="192.148" stroke="black"/>
<line x1="238.609" y1="192.148" x2="240.622" y2="192.148" stroke="black"/>
<line x1="255.721" y1="192.148" x2="257.734" y2="192.148" stroke="black"/>
<line x1="272.833" y1="192.148" x2="274.846" y2="192.148" stroke="black"/>
<line x1="289.945" y1="192.148" x2="291.958" y2="192.148" stroke="black"/>
<line x1="307.057" y1="192.148" x2="309.07" y2="192.148" stroke="black"/>
<line x1="118.826" y1="207.247" x2="120.839" y2="207.247" stroke="black"/>
<line x1="135.938" y1="207.247" x2="137.951" y2="207.247" stroke="black"/>
<line x1="153.05" y1="207.247" x2="155.063" y2="207.247" stroke="black"/>
<line x1="170.161" y1="207.247" x2="172.175" y2="207.247" stroke="black"/>
<line x1="187.273" y1="207.247" x2="189.286" y2="207.247" stroke="black"/>
<line x1="204.385" y1="207.247" x2="206.399" y2="207.247" stroke="black"/>
<line x1="221.497" y1="207.247" x2="223.51" y2="207.247" stroke="black"/>
<line x1="238.609" y1="207.247" x2="240.622" y2="207.247" stroke="black"/>
<line x1="255.721" y1="207.247" x2="257.734" y2="207.247" stroke="black"/>
<line x1="272.833" y1="207.247" x2="274.846" y2="207.247" stroke="black"/>
<line x1="289.945" y1="207.247" x2="291.958" y2="207.247" stroke="black"/>
<line x1="307.057" y1="207.247" x2="309.07" y2="207.247" stroke="black"/>
<line x1="118.826" y1="222.345" x2="120.839" y2="222.345" stroke="black"/>
<line x1="135.938" y1="222.345" x2="137.951" y2="222.345" stroke="black"/>
<line x1="153.05" y1="222.345" x2="155.063" y2="222.345" stroke="black"/>
<line x1="170.161" y1="222.345" x2="172.175" y2="222.345" stroke="black"/>
<line x1="187.273" y1="222.345" x2="189.286" y2="222.345" stroke="black"/>
<line x1="204.385" y1="222.345" x2="206.399" y2="222.345" stroke="black"/>
<line x1="221.497" y1="222.345" x2="223.51" y2="222.345" stroke="black"/>
<line x1="238.609" y1="222.345" x2="240.622" y2="222.345" stroke="black"/>
<line x1="255.721" y1="222.345" x2="257.734" y2="222.345" stroke="black"/>
<line x1="272.833" y1="222.345" x2="274.846" y2="222.345" stroke="black"/>
<line x1="289.945" y1="222.345" x2="291.958" y2="222.345" stroke="black"/>
<line x1="307.057" y1="222.345" x2="309.07" y2="222.345" stroke="black"/>
<line x1="118.826" y1="237.444" x2="120.839" y2="237.444" stroke="black"/>
<line x1="135.938" y1="237.444" x2="137.951" y2="237.444" stroke="black"/>
<line x1="153.05" y1="237.444" x2="155.063" y2="237.444" stroke="black"/>
<line x1="170.161" y1="237.444" x2="172.175" y2="237.444" stroke="black"/>
<line x1="187.273" y1="237.444" x2="189.286" y2="237.444" stroke="black"/>
<line x1="204.385" y1="237.444" x2="206.399" y2="237.444" stroke="black"/>
<line x1="221.497" y1="237.444" x2="223.51" y2="237.444" stroke="black"/>
<line x1="238.609" y1="237.444" x2="240.622" y2="237.444" stroke="black"/>
<line x1="255.721" y1="237.444" x2="257.734" y2="237.444" stroke="black"/>
<line x1="272.833" y1="237.444" x2="274.846" y2="237.444" stroke="black"/>
<line x1="289.945" y1="237.444" x2="291.958" y2="237.444" stroke="black"/>
<line x1="307.057" y1="237.444" x2="309.07" y2="237.444" stroke="black"/>
<line x1="118.826" y1="252.543" x2="120.839" y2="252.543" stroke="black"/>
<line x1="135.938" y1="252.543" x2="137.951" y2="252.543" stroke="black"/>
<line x1="153.05" y1="252.543" x2="155.063" y2="252.543" stroke="black"/>
<line x1="170.161" y1="252.543" x2="172.175" y2="252.543" stroke="black"/>
<line x1="187.273" y1="252.543" x2="189.286" y2="252.543" stroke="black"/>
<line x1="204.385" y1="252.543" x2="206.399" y2="252.543" stroke="black"/>
<line x1="221.497" y1="252.543" x2="223.51" y2="252.543" stroke="black"/>
<line x1="238.609" y1="252.543" x2="240.622" y2="252.543" stroke="black"/>
<line x1="255.721" y1="252.543" x2="257.734" y2="252.543" stroke="black"/>
<line x1="272.833" y1="252.543" x2="274.846" y2="252.543" stroke="black"/>
<line x1="289.945" y1="252.543" x2="291.958" y2="252.543" stroke="black"/>
<line x1="307.057" y1="252.543" x2="309.07" y2="252.543" stroke="black"/>
<path d="M119 89H272V215C272 259.183 236.183 295 192 295H119V89Z" fill="#6EB6C1"/>
<circle cx="83" cy="83" r="83" fill="#FD8977"/>
</svg>
