<svg width="185" height="189" viewBox="0 0 185 189" fill="none" xmlns="http://www.w3.org/2000/svg">
<line y1="0.5" x2="1.78797" y2="0.5" stroke="black"/>
<line y1="13.9097" x2="1.78797" y2="13.9097" stroke="black"/>
<line y1="27.3196" x2="1.78797" y2="27.3196" stroke="black"/>
<line y1="27.3196" x2="1.78797" y2="27.3196" stroke="black"/>
<line y1="40.7292" x2="1.78797" y2="40.7292" stroke="black"/>
<line y1="54.1389" x2="1.78797" y2="54.1389" stroke="black"/>
<line y1="67.5488" x2="1.78797" y2="67.5488" stroke="black"/>
<line y1="80.9585" x2="1.78797" y2="80.9585" stroke="black"/>
<line y1="94.3682" x2="1.78797" y2="94.3682" stroke="black"/>
<line y1="107.778" x2="1.78797" y2="107.778" stroke="black"/>
<line y1="121.188" x2="1.78797" y2="121.188" stroke="black"/>
<line y1="134.597" x2="1.78797" y2="134.597" stroke="black"/>
<line y1="148.007" x2="1.78797" y2="148.007" stroke="black"/>
<line y1="161.417" x2="1.78797" y2="161.417" stroke="black"/>
<line y1="174.827" x2="1.78797" y2="174.827" stroke="black"/>
<line y1="188.236" x2="1.78797" y2="188.236" stroke="black"/>
<line x1="15.1976" y1="0.5" x2="16.9856" y2="0.5" stroke="black"/>
<line x1="30.3955" y1="0.5" x2="32.1835" y2="0.5" stroke="black"/>
<line x1="45.5931" y1="0.5" x2="47.3811" y2="0.5" stroke="black"/>
<line x1="60.7908" y1="0.5" x2="62.5787" y2="0.5" stroke="black"/>
<line x1="75.9885" y1="0.5" x2="77.7765" y2="0.5" stroke="black"/>
<line x1="91.1863" y1="0.5" x2="92.9742" y2="0.5" stroke="black"/>
<line x1="106.384" y1="0.5" x2="108.172" y2="0.5" stroke="black"/>
<line x1="121.582" y1="0.5" x2="123.37" y2="0.5" stroke="black"/>
<line x1="136.779" y1="0.5" x2="138.567" y2="0.5" stroke="black"/>
<line x1="151.977" y1="0.5" x2="153.765" y2="0.5" stroke="black"/>
<line x1="167.175" y1="0.5" x2="168.963" y2="0.5" stroke="black"/>
<line x1="182.372" y1="0.5" x2="184.16" y2="0.5" stroke="black"/>
<line x1="15.1976" y1="13.9097" x2="16.9856" y2="13.9097" stroke="black"/>
<line x1="30.3955" y1="13.9097" x2="32.1835" y2="13.9097" stroke="black"/>
<line x1="45.5931" y1="13.9097" x2="47.3811" y2="13.9097" stroke="black"/>
<line x1="60.7908" y1="13.9097" x2="62.5787" y2="13.9097" stroke="black"/>
<line x1="75.9885" y1="13.9097" x2="77.7765" y2="13.9097" stroke="black"/>
<line x1="91.1863" y1="13.9097" x2="92.9742" y2="13.9097" stroke="black"/>
<line x1="106.384" y1="13.9097" x2="108.172" y2="13.9097" stroke="black"/>
<line x1="121.582" y1="13.9097" x2="123.37" y2="13.9097" stroke="black"/>
<line x1="136.779" y1="13.9097" x2="138.567" y2="13.9097" stroke="black"/>
<line x1="151.977" y1="13.9097" x2="153.765" y2="13.9097" stroke="black"/>
<line x1="167.175" y1="13.9097" x2="168.963" y2="13.9097" stroke="black"/>
<line x1="182.372" y1="13.9097" x2="184.16" y2="13.9097" stroke="black"/>
<line x1="15.1976" y1="27.3196" x2="16.9856" y2="27.3196" stroke="black"/>
<line x1="30.3955" y1="27.3196" x2="32.1835" y2="27.3196" stroke="black"/>
<line x1="45.5931" y1="27.3196" x2="47.3811" y2="27.3196" stroke="black"/>
<line x1="60.7908" y1="27.3196" x2="62.5787" y2="27.3196" stroke="black"/>
<line x1="75.9885" y1="27.3196" x2="77.7765" y2="27.3196" stroke="black"/>
<line x1="91.1863" y1="27.3196" x2="92.9742" y2="27.3196" stroke="black"/>
<line x1="106.384" y1="27.3196" x2="108.172" y2="27.3196" stroke="black"/>
<line x1="121.582" y1="27.3196" x2="123.37" y2="27.3196" stroke="black"/>
<line x1="136.779" y1="27.3196" x2="138.567" y2="27.3196" stroke="black"/>
<line x1="151.977" y1="27.3196" x2="153.765" y2="27.3196" stroke="black"/>
<line x1="167.175" y1="27.3196" x2="168.963" y2="27.3196" stroke="black"/>
<line x1="182.372" y1="27.3196" x2="184.16" y2="27.3196" stroke="black"/>
<line x1="15.1976" y1="27.3196" x2="16.9856" y2="27.3196" stroke="black"/>
<line x1="30.3955" y1="27.3196" x2="32.1835" y2="27.3196" stroke="black"/>
<line x1="45.5931" y1="27.3196" x2="47.3811" y2="27.3196" stroke="black"/>
<line x1="60.7908" y1="27.3196" x2="62.5787" y2="27.3196" stroke="black"/>
<line x1="75.9885" y1="27.3196" x2="77.7765" y2="27.3196" stroke="black"/>
<line x1="91.1863" y1="27.3196" x2="92.9742" y2="27.3196" stroke="black"/>
<line x1="106.384" y1="27.3196" x2="108.172" y2="27.3196" stroke="black"/>
<line x1="121.582" y1="27.3196" x2="123.37" y2="27.3196" stroke="black"/>
<line x1="136.779" y1="27.3196" x2="138.567" y2="27.3196" stroke="black"/>
<line x1="151.977" y1="27.3196" x2="153.765" y2="27.3196" stroke="black"/>
<line x1="167.175" y1="27.3196" x2="168.963" y2="27.3196" stroke="black"/>
<line x1="182.372" y1="27.3196" x2="184.16" y2="27.3196" stroke="black"/>
<line x1="15.1976" y1="40.7292" x2="16.9856" y2="40.7292" stroke="black"/>
<line x1="30.3955" y1="40.7292" x2="32.1835" y2="40.7292" stroke="black"/>
<line x1="45.5931" y1="40.7292" x2="47.3811" y2="40.7292" stroke="black"/>
<line x1="60.7908" y1="40.7292" x2="62.5787" y2="40.7292" stroke="black"/>
<line x1="75.9885" y1="40.7292" x2="77.7765" y2="40.7292" stroke="black"/>
<line x1="91.1863" y1="40.7292" x2="92.9742" y2="40.7292" stroke="black"/>
<line x1="106.384" y1="40.7292" x2="108.172" y2="40.7292" stroke="black"/>
<line x1="121.582" y1="40.7292" x2="123.37" y2="40.7292" stroke="black"/>
<line x1="136.779" y1="40.7292" x2="138.567" y2="40.7292" stroke="black"/>
<line x1="151.977" y1="40.7292" x2="153.765" y2="40.7292" stroke="black"/>
<line x1="167.175" y1="40.7292" x2="168.963" y2="40.7292" stroke="black"/>
<line x1="182.372" y1="40.7292" x2="184.16" y2="40.7292" stroke="black"/>
<line x1="15.1976" y1="54.1389" x2="16.9856" y2="54.1389" stroke="black"/>
<line x1="30.3955" y1="54.1389" x2="32.1835" y2="54.1389" stroke="black"/>
<line x1="45.5931" y1="54.1389" x2="47.3811" y2="54.1389" stroke="black"/>
<line x1="60.7908" y1="54.1389" x2="62.5787" y2="54.1389" stroke="black"/>
<line x1="75.9885" y1="54.1389" x2="77.7765" y2="54.1389" stroke="black"/>
<line x1="91.1863" y1="54.1389" x2="92.9742" y2="54.1389" stroke="black"/>
<line x1="106.384" y1="54.1389" x2="108.172" y2="54.1389" stroke="black"/>
<line x1="121.582" y1="54.1389" x2="123.37" y2="54.1389" stroke="black"/>
<line x1="136.779" y1="54.1389" x2="138.567" y2="54.1389" stroke="black"/>
<line x1="151.977" y1="54.1389" x2="153.765" y2="54.1389" stroke="black"/>
<line x1="167.175" y1="54.1389" x2="168.963" y2="54.1389" stroke="black"/>
<line x1="182.372" y1="54.1389" x2="184.16" y2="54.1389" stroke="black"/>
<line x1="15.1976" y1="67.5488" x2="16.9856" y2="67.5488" stroke="black"/>
<line x1="30.3955" y1="67.5488" x2="32.1835" y2="67.5488" stroke="black"/>
<line x1="45.5931" y1="67.5488" x2="47.3811" y2="67.5488" stroke="black"/>
<line x1="60.7908" y1="67.5488" x2="62.5787" y2="67.5488" stroke="black"/>
<line x1="75.9885" y1="67.5488" x2="77.7765" y2="67.5488" stroke="black"/>
<line x1="91.1863" y1="67.5488" x2="92.9742" y2="67.5488" stroke="black"/>
<line x1="106.384" y1="67.5488" x2="108.172" y2="67.5488" stroke="black"/>
<line x1="121.582" y1="67.5488" x2="123.37" y2="67.5488" stroke="black"/>
<line x1="136.779" y1="67.5488" x2="138.567" y2="67.5488" stroke="black"/>
<line x1="151.977" y1="67.5488" x2="153.765" y2="67.5488" stroke="black"/>
<line x1="167.175" y1="67.5488" x2="168.963" y2="67.5488" stroke="black"/>
<line x1="182.372" y1="67.5488" x2="184.16" y2="67.5488" stroke="black"/>
<line x1="15.1976" y1="80.9585" x2="16.9856" y2="80.9585" stroke="black"/>
<line x1="30.3955" y1="80.9585" x2="32.1835" y2="80.9585" stroke="black"/>
<line x1="45.5931" y1="80.9585" x2="47.3811" y2="80.9585" stroke="black"/>
<line x1="60.7908" y1="80.9585" x2="62.5787" y2="80.9585" stroke="black"/>
<line x1="75.9885" y1="80.9585" x2="77.7765" y2="80.9585" stroke="black"/>
<line x1="91.1863" y1="80.9585" x2="92.9742" y2="80.9585" stroke="black"/>
<line x1="106.384" y1="80.9585" x2="108.172" y2="80.9585" stroke="black"/>
<line x1="121.582" y1="80.9585" x2="123.37" y2="80.9585" stroke="black"/>
<line x1="136.779" y1="80.9585" x2="138.567" y2="80.9585" stroke="black"/>
<line x1="151.977" y1="80.9585" x2="153.765" y2="80.9585" stroke="black"/>
<line x1="167.175" y1="80.9585" x2="168.963" y2="80.9585" stroke="black"/>
<line x1="182.372" y1="80.9585" x2="184.16" y2="80.9585" stroke="black"/>
<line x1="15.1976" y1="94.3682" x2="16.9856" y2="94.3682" stroke="black"/>
<line x1="30.3955" y1="94.3682" x2="32.1835" y2="94.3682" stroke="black"/>
<line x1="45.5931" y1="94.3682" x2="47.3811" y2="94.3682" stroke="black"/>
<line x1="60.7908" y1="94.3682" x2="62.5787" y2="94.3682" stroke="black"/>
<line x1="75.9885" y1="94.3682" x2="77.7765" y2="94.3682" stroke="black"/>
<line x1="91.1863" y1="94.3682" x2="92.9742" y2="94.3682" stroke="black"/>
<line x1="106.384" y1="94.3682" x2="108.172" y2="94.3682" stroke="black"/>
<line x1="121.582" y1="94.3682" x2="123.37" y2="94.3682" stroke="black"/>
<line x1="136.779" y1="94.3682" x2="138.567" y2="94.3682" stroke="black"/>
<line x1="151.977" y1="94.3682" x2="153.765" y2="94.3682" stroke="black"/>
<line x1="167.175" y1="94.3682" x2="168.963" y2="94.3682" stroke="black"/>
<line x1="182.372" y1="94.3682" x2="184.16" y2="94.3682" stroke="black"/>
<line x1="15.1976" y1="107.778" x2="16.9856" y2="107.778" stroke="black"/>
<line x1="30.3955" y1="107.778" x2="32.1835" y2="107.778" stroke="black"/>
<line x1="45.5931" y1="107.778" x2="47.3811" y2="107.778" stroke="black"/>
<line x1="60.7908" y1="107.778" x2="62.5787" y2="107.778" stroke="black"/>
<line x1="75.9885" y1="107.778" x2="77.7765" y2="107.778" stroke="black"/>
<line x1="91.1863" y1="107.778" x2="92.9742" y2="107.778" stroke="black"/>
<line x1="106.384" y1="107.778" x2="108.172" y2="107.778" stroke="black"/>
<line x1="121.582" y1="107.778" x2="123.37" y2="107.778" stroke="black"/>
<line x1="136.779" y1="107.778" x2="138.567" y2="107.778" stroke="black"/>
<line x1="151.977" y1="107.778" x2="153.765" y2="107.778" stroke="black"/>
<line x1="167.175" y1="107.778" x2="168.963" y2="107.778" stroke="black"/>
<line x1="182.372" y1="107.778" x2="184.16" y2="107.778" stroke="black"/>
<line x1="15.1976" y1="121.188" x2="16.9856" y2="121.188" stroke="black"/>
<line x1="30.3955" y1="121.188" x2="32.1835" y2="121.188" stroke="black"/>
<line x1="45.5931" y1="121.188" x2="47.3811" y2="121.188" stroke="black"/>
<line x1="60.7908" y1="121.188" x2="62.5787" y2="121.188" stroke="black"/>
<line x1="75.9885" y1="121.188" x2="77.7765" y2="121.188" stroke="black"/>
<line x1="91.1863" y1="121.188" x2="92.9742" y2="121.188" stroke="black"/>
<line x1="106.384" y1="121.188" x2="108.172" y2="121.188" stroke="black"/>
<line x1="121.582" y1="121.188" x2="123.37" y2="121.188" stroke="black"/>
<line x1="136.779" y1="121.188" x2="138.567" y2="121.188" stroke="black"/>
<line x1="151.977" y1="121.188" x2="153.765" y2="121.188" stroke="black"/>
<line x1="167.175" y1="121.188" x2="168.963" y2="121.188" stroke="black"/>
<line x1="182.372" y1="121.188" x2="184.16" y2="121.188" stroke="black"/>
<line x1="15.1976" y1="134.597" x2="16.9856" y2="134.597" stroke="black"/>
<line x1="30.3955" y1="134.597" x2="32.1835" y2="134.597" stroke="black"/>
<line x1="45.5931" y1="134.597" x2="47.3811" y2="134.597" stroke="black"/>
<line x1="60.7908" y1="134.597" x2="62.5787" y2="134.597" stroke="black"/>
<line x1="75.9885" y1="134.597" x2="77.7765" y2="134.597" stroke="black"/>
<line x1="91.1863" y1="134.597" x2="92.9742" y2="134.597" stroke="black"/>
<line x1="106.384" y1="134.597" x2="108.172" y2="134.597" stroke="black"/>
<line x1="121.582" y1="134.597" x2="123.37" y2="134.597" stroke="black"/>
<line x1="136.779" y1="134.597" x2="138.567" y2="134.597" stroke="black"/>
<line x1="151.977" y1="134.597" x2="153.765" y2="134.597" stroke="black"/>
<line x1="167.175" y1="134.597" x2="168.963" y2="134.597" stroke="black"/>
<line x1="182.372" y1="134.597" x2="184.16" y2="134.597" stroke="black"/>
<line x1="15.1976" y1="148.007" x2="16.9856" y2="148.007" stroke="black"/>
<line x1="30.3955" y1="148.007" x2="32.1835" y2="148.007" stroke="black"/>
<line x1="45.5931" y1="148.007" x2="47.3811" y2="148.007" stroke="black"/>
<line x1="60.7908" y1="148.007" x2="62.5787" y2="148.007" stroke="black"/>
<line x1="75.9885" y1="148.007" x2="77.7765" y2="148.007" stroke="black"/>
<line x1="91.1863" y1="148.007" x2="92.9742" y2="148.007" stroke="black"/>
<line x1="106.384" y1="148.007" x2="108.172" y2="148.007" stroke="black"/>
<line x1="121.582" y1="148.007" x2="123.37" y2="148.007" stroke="black"/>
<line x1="136.779" y1="148.007" x2="138.567" y2="148.007" stroke="black"/>
<line x1="151.977" y1="148.007" x2="153.765" y2="148.007" stroke="black"/>
<line x1="167.175" y1="148.007" x2="168.963" y2="148.007" stroke="black"/>
<line x1="182.372" y1="148.007" x2="184.16" y2="148.007" stroke="black"/>
<line x1="15.1976" y1="161.417" x2="16.9856" y2="161.417" stroke="black"/>
<line x1="30.3955" y1="161.417" x2="32.1835" y2="161.417" stroke="black"/>
<line x1="45.5931" y1="161.417" x2="47.3811" y2="161.417" stroke="black"/>
<line x1="60.7908" y1="161.417" x2="62.5787" y2="161.417" stroke="black"/>
<line x1="75.9885" y1="161.417" x2="77.7765" y2="161.417" stroke="black"/>
<line x1="91.1863" y1="161.417" x2="92.9742" y2="161.417" stroke="black"/>
<line x1="106.384" y1="161.417" x2="108.172" y2="161.417" stroke="black"/>
<line x1="121.582" y1="161.417" x2="123.37" y2="161.417" stroke="black"/>
<line x1="136.779" y1="161.417" x2="138.567" y2="161.417" stroke="black"/>
<line x1="151.977" y1="161.417" x2="153.765" y2="161.417" stroke="black"/>
<line x1="167.175" y1="161.417" x2="168.963" y2="161.417" stroke="black"/>
<line x1="182.372" y1="161.417" x2="184.16" y2="161.417" stroke="black"/>
<line x1="15.1976" y1="174.827" x2="16.9856" y2="174.827" stroke="black"/>
<line x1="30.3955" y1="174.827" x2="32.1835" y2="174.827" stroke="black"/>
<line x1="45.5931" y1="174.827" x2="47.3811" y2="174.827" stroke="black"/>
<line x1="60.7908" y1="174.827" x2="62.5787" y2="174.827" stroke="black"/>
<line x1="75.9885" y1="174.827" x2="77.7765" y2="174.827" stroke="black"/>
<line x1="91.1863" y1="174.827" x2="92.9742" y2="174.827" stroke="black"/>
<line x1="106.384" y1="174.827" x2="108.172" y2="174.827" stroke="black"/>
<line x1="121.582" y1="174.827" x2="123.37" y2="174.827" stroke="black"/>
<line x1="136.779" y1="174.827" x2="138.567" y2="174.827" stroke="black"/>
<line x1="151.977" y1="174.827" x2="153.765" y2="174.827" stroke="black"/>
<line x1="167.175" y1="174.827" x2="168.963" y2="174.827" stroke="black"/>
<line x1="182.372" y1="174.827" x2="184.16" y2="174.827" stroke="black"/>
<line x1="15.1976" y1="188.236" x2="16.9856" y2="188.236" stroke="black"/>
<line x1="30.3955" y1="188.236" x2="32.1835" y2="188.236" stroke="black"/>
<line x1="45.5931" y1="188.236" x2="47.3811" y2="188.236" stroke="black"/>
<line x1="60.7908" y1="188.236" x2="62.5787" y2="188.236" stroke="black"/>
<line x1="75.9885" y1="188.236" x2="77.7765" y2="188.236" stroke="black"/>
<line x1="91.1863" y1="188.236" x2="92.9742" y2="188.236" stroke="black"/>
<line x1="106.384" y1="188.236" x2="108.172" y2="188.236" stroke="black"/>
<line x1="121.582" y1="188.236" x2="123.37" y2="188.236" stroke="black"/>
<line x1="136.779" y1="188.236" x2="138.567" y2="188.236" stroke="black"/>
<line x1="151.977" y1="188.236" x2="153.765" y2="188.236" stroke="black"/>
<line x1="167.175" y1="188.236" x2="168.963" y2="188.236" stroke="black"/>
<line x1="182.372" y1="188.236" x2="184.16" y2="188.236" stroke="black"/>
</svg>
